<svg width="179" height="40" viewBox="0 0 179 40" fill="none" xmlns="http://www.w3.org/2000/svg">
<path d="M101.02 8.76394C101.208 8.90975 101.391 9.06076 101.568 9.21698C101.725 9.32112 101.882 9.42527 102.039 9.52941C102.101 9.46692 102.164 9.40444 102.227 9.34195C103.841 7.88912 105.565 7.71728 107.666 7.79539C109.264 7.88912 110.769 8.46713 111.882 9.63876C112.431 10.3105 112.744 11.0447 113.011 11.8727C113.042 11.956 113.068 12.0445 113.089 12.1383C113.199 12.6382 113.183 13.1068 113.183 13.6223C113.183 13.7265 113.183 13.8358 113.183 13.9504C113.183 14.3149 113.183 14.6846 113.183 15.0595C113.183 15.3095 113.183 15.5646 113.183 15.825C113.183 16.4915 113.183 17.1581 113.183 17.8246C113.183 18.512 113.178 19.1941 113.167 19.8711C113.167 21.2145 113.167 22.558 113.167 23.9015C111.772 23.9015 110.377 23.9015 108.935 23.9015C108.935 23.589 108.935 23.2766 108.935 22.9642C108.925 21.9331 108.914 20.9021 108.904 19.8711C108.894 19.2462 108.888 18.6213 108.888 17.9964C108.878 17.3924 108.867 16.7883 108.857 16.1843C108.857 15.9552 108.857 15.7209 108.857 15.4813C108.857 15.1585 108.852 14.8356 108.841 14.5128C108.841 14.3357 108.841 14.1535 108.841 13.966C108.763 13.2786 108.59 12.5757 108.042 12.1226C107.525 11.982 107.039 11.982 106.521 11.982C106.312 11.982 106.103 11.982 105.894 11.982C105.362 12.0289 105.017 12.0914 104.547 12.3413C104.029 13.0756 104.061 14.0597 104.045 14.9346C104.045 15.1324 104.04 15.3303 104.029 15.5282C104.029 15.7469 104.029 15.9656 104.029 16.1843C104.029 16.403 104.024 16.6269 104.014 16.856C104.003 17.4393 103.998 18.0225 103.998 18.6057C103.987 19.1993 103.977 19.7929 103.967 20.3866C103.946 21.5634 103.93 22.7351 103.92 23.9015C102.572 23.9015 101.224 23.9015 99.8442 23.9015C99.8442 23.589 99.8442 23.2766 99.8442 22.9642C99.8338 21.9331 99.8233 20.9021 99.8129 19.8711C99.8024 19.2462 99.7972 18.6213 99.7972 17.9964C99.7868 17.3924 99.7763 16.7883 99.7659 16.1843C99.7659 15.9552 99.7659 15.7209 99.7659 15.4813C99.7659 15.1585 99.7606 14.8356 99.7502 14.5128C99.7502 14.2472 99.7502 14.2472 99.7502 13.966C99.6718 13.2786 99.4994 12.5757 98.9508 12.1226C98.4336 11.982 97.9477 11.982 97.4304 11.982C97.2214 11.982 97.0124 11.982 96.8034 11.982C96.2705 12.0289 95.9257 12.0914 95.4554 12.3413C94.9382 13.0756 94.9695 14.0597 94.9539 14.9346C94.9539 15.1324 94.9486 15.3303 94.9382 15.5282C94.9382 15.7469 94.9382 15.9656 94.9382 16.1843C94.9382 16.403 94.933 16.6269 94.9225 16.856C94.9121 17.4393 94.9068 18.0225 94.9068 18.6057C94.8964 19.1993 94.8859 19.7929 94.8755 20.3866C94.8546 21.5634 94.8389 22.7351 94.8285 23.9015C93.4335 23.9015 92.0385 23.9015 90.5964 23.9015C90.586 22.5059 90.5755 21.1156 90.5651 19.7305C90.5651 19.0848 90.5599 18.4391 90.5494 17.7934C90.539 17.1685 90.5337 16.5436 90.5337 15.9187C90.5337 15.6792 90.5337 15.4397 90.5337 15.2001C90.5024 13.1381 90.7532 11.1385 92.1639 9.52941C94.2642 7.48295 98.6216 6.98305 101.02 8.76394Z" fill="#EF3E3B"/>
<path d="M15.6737 3.68667C17.5389 4.9989 18.1032 7.15471 18.6831 9.26366C18.7354 9.47195 18.7929 9.68545 18.8555 9.90415C19.0123 10.4874 19.1743 11.0758 19.3415 11.6694C19.4668 12.1589 19.5975 12.6484 19.7333 13.1379C20.1199 14.5334 20.5013 15.929 20.8775 17.3245C21.0552 17.9806 21.2328 18.6367 21.4105 19.2929C21.5567 19.8136 21.6978 20.3291 21.8337 20.8394C21.8964 21.079 21.9643 21.3237 22.0374 21.5737C22.121 21.9069 22.2098 22.2402 22.3039 22.5734C22.3561 22.7609 22.4084 22.9536 22.4606 23.1515C22.5703 23.5889 22.5703 23.5889 22.5703 23.9013C21.1283 23.9013 19.6706 23.9013 18.1816 23.9013C17.8524 22.9171 17.5546 21.9486 17.2881 20.9488C17.2411 20.7613 17.2411 20.7613 17.1784 20.5582C17.1471 20.4333 17.1157 20.3031 17.0844 20.1677C17.053 20.0635 17.0217 19.949 16.9903 19.824C16.9276 19.5272 16.9276 19.5272 16.9276 19.0585C14.2316 19.0585 11.5513 19.0585 8.777 19.0585C8.72998 19.4178 8.66728 19.7771 8.62026 20.1521C8.55756 20.4541 8.48442 20.7509 8.40082 21.0425C8.35902 21.1987 8.31723 21.3549 8.27543 21.5112C8.21273 21.7611 8.21273 21.7611 8.15003 22.0111C8.10824 22.1777 8.06644 22.3443 8.02464 22.511C7.69548 23.7295 7.69548 23.7295 7.52306 23.9013C7.20958 23.9117 6.89609 23.9169 6.58261 23.9169C6.39452 23.9169 6.2012 23.9169 6.00266 23.9169C5.80412 23.9169 5.60036 23.9169 5.39137 23.9169C5.19283 23.9169 4.98906 23.9117 4.78007 23.9013C4.28894 23.9013 3.79259 23.9013 3.29102 23.9013C3.38506 22.5422 3.74557 21.2768 4.10608 19.9802C4.16877 19.7303 4.2367 19.4803 4.30984 19.2304C4.44569 18.7201 4.58675 18.2045 4.73305 17.6838C4.91069 17.0277 5.08833 16.3768 5.26597 15.7311C5.90862 13.3253 6.56693 10.9352 7.2566 8.54505C7.33497 8.31073 7.33497 8.31073 7.39767 8.04515C7.89925 6.38924 8.55756 4.71771 10.0309 3.68667C11.5357 2.93682 14.1533 2.9212 15.6737 3.68667ZM11.9119 7.49839C10.9087 9.81042 10.4698 12.5755 9.8742 14.9969C11.8335 14.9969 13.8084 14.9969 15.8304 14.9969C15.6214 14.1325 15.4072 13.268 15.1878 12.4036C15.1251 12.112 15.0572 11.8204 14.984 11.5288C14.8795 11.1018 14.775 10.6748 14.6705 10.2478C14.6235 10.0604 14.6235 10.0604 14.5765 9.85729C14.2473 8.42008 14.2473 8.42008 13.4793 7.18595C12.6485 7.13909 12.6485 7.13909 11.9119 7.49839Z" fill="#2A2665"/>
<path d="M33.8564 2.03076C35.2515 2.03076 36.6465 2.03076 38.0885 2.03076C38.0989 4.1345 38.1094 6.23824 38.1198 8.34198C38.1198 9.32094 38.1198 10.2999 38.1198 11.2789C38.1303 12.2162 38.1355 13.1587 38.1355 14.1064C38.1355 14.4605 38.1355 14.8198 38.1355 15.1843C38.1669 20.1833 38.1669 20.1833 36.6778 22.0267C34.7969 23.8232 32.5868 24.2919 30.0476 24.2762C28.0726 24.2137 26.1917 23.7607 24.7184 22.386C23.1353 20.6832 22.9785 18.668 22.9942 16.4497C22.9942 16.1268 22.989 15.7988 22.9785 15.4655C22.9785 13.3097 23.2763 11.2164 24.7184 9.51361C26.2544 8.06078 28.2137 7.74835 30.2514 7.77959C31.7091 7.82646 32.4928 8.31073 33.6997 9.2168C33.7467 6.84228 33.8094 4.46777 33.8564 2.03076ZM27.9002 12.4974C27.1949 13.544 27.2419 14.7625 27.2419 15.981C27.2419 16.1268 27.2419 16.2674 27.2419 16.4028C27.2419 17.4964 27.2889 18.5743 27.8689 19.5116C28.6369 20.2302 29.4677 20.1989 30.4708 20.1989C30.5962 20.1989 30.7268 20.2041 30.8627 20.2146C31.8188 20.2146 32.6339 20.0896 33.3549 19.4178C33.9035 18.3399 33.9035 17.2152 33.9035 16.0279C33.9035 15.8821 33.9087 15.7311 33.9191 15.5749C33.9191 14.5438 33.8094 13.5909 33.3862 12.6536C32.2733 11.685 30.8783 11.7788 29.4677 11.8413C28.7937 11.9038 28.4332 12.0912 27.9002 12.4974Z" fill="#2A2665"/>
<path d="M142.95 2.03076C144.345 2.03076 145.74 2.03076 147.182 2.03076C147.192 4.22823 147.203 6.42049 147.213 8.60755C147.213 9.62817 147.213 10.6488 147.213 11.6694C147.224 12.6484 147.229 13.6326 147.229 14.6219C147.229 14.9969 147.229 15.3718 147.229 15.7467C147.229 16.2674 147.229 16.7934 147.229 17.3245C147.239 17.4703 147.244 17.6213 147.244 17.7776C147.229 19.5741 146.711 21.0113 145.489 22.3235C143.906 23.8232 141.899 24.2762 139.768 24.2606C139.632 24.2606 139.491 24.2606 139.345 24.2606C137.385 24.2294 135.504 23.8544 134 22.511C132.714 21.1362 132.244 19.5584 132.244 17.7151C132.244 17.5901 132.239 17.4599 132.228 17.3245C132.228 17.0642 132.228 16.8038 132.228 16.5434C132.228 16.1477 132.228 15.7519 132.228 15.3562C132.197 13.0598 132.542 11.1227 134.141 9.37302C135.489 8.07641 137.244 7.76397 139.047 7.77959C140.614 7.79521 141.508 8.13889 142.793 9.06058C142.84 6.73293 142.903 4.4209 142.95 2.03076ZM136.931 12.7161C136.319 13.7003 136.492 14.8563 136.492 15.9654C136.481 16.1737 136.476 16.382 136.476 16.5903C136.445 18.1212 136.445 18.1212 136.993 19.5272C137.809 20.1989 138.733 20.2458 139.752 20.2146C139.877 20.2146 140.003 20.2198 140.128 20.2302C140.959 20.2146 141.602 20.1208 142.323 19.6834C143.153 18.7617 143.044 17.4807 143.028 16.3247C143.018 15.9915 143.018 15.6634 143.028 15.3406C143.012 13.9346 143.012 13.9346 142.479 12.6536C141.633 11.8569 140.896 11.8413 139.768 11.8256C139.653 11.8256 139.538 11.8256 139.423 11.8256C138.42 11.81 137.652 11.9819 136.931 12.7161Z" fill="#EF3E3B"/>
<path d="M86.2233 9.2324C87.4302 10.3103 88.0101 11.9037 88.1042 13.4659C88.1251 13.8617 88.1355 14.2522 88.1355 14.6375C88.1355 14.7625 88.1355 14.8875 88.1355 15.0125C88.1355 15.9029 87.9788 16.559 87.775 17.4963C84.6245 17.4963 81.4583 17.4963 78.2137 17.4963C78.2451 18.8398 78.2451 18.8398 78.8407 19.8396C80.3141 20.6519 82.1166 20.4332 83.6997 19.9958C83.8094 19.5897 83.9035 19.1679 84.0132 18.7461C85.3612 18.7461 86.7092 18.7461 88.0885 18.7461C88.0885 20.1677 87.822 21.433 86.9286 22.5578C85.2514 24.1981 82.9317 24.2918 80.7373 24.2762C78.7937 24.2293 77.1008 23.87 75.5804 22.6047C73.9346 20.6363 73.7936 18.6055 73.7936 16.1216C73.7936 15.9446 73.7936 15.7727 73.7936 15.6061C73.7779 13.3409 74.06 11.2164 75.6902 9.52921C78.4018 6.99848 83.2922 7.24843 86.2233 9.2324ZM78.4645 12.3724C78.1197 12.8879 78.1197 12.8879 78.2137 13.9033C80.126 13.9033 82.0382 13.9033 84.0132 13.9033C84.0132 12.9348 83.9975 12.7317 83.3862 12.0287C81.9755 11.0914 79.6871 11.2476 78.4645 12.3724Z" fill="#2A2665"/>
<path d="M127.714 8.95136C129.046 9.9824 129.689 11.3571 129.94 12.9662C129.987 13.5129 129.987 14.0597 129.987 14.6221C129.987 14.8252 129.987 14.8252 129.987 15.0439C129.987 15.1793 129.987 15.3147 129.987 15.45C129.987 15.575 129.987 15.7 129.987 15.825C129.924 16.3874 129.767 16.9497 129.626 17.4965C126.476 17.4965 123.31 17.4965 120.065 17.4965C120.175 19.293 120.175 19.293 121.006 19.996C122.338 20.574 123.921 20.449 125.285 20.0429C125.676 19.7773 125.676 19.7773 125.865 18.7462C127.213 18.7462 128.561 18.7462 129.94 18.7462C129.94 20.2928 129.658 21.6675 128.529 22.8079C126.507 24.4326 123.78 24.3857 121.319 24.2139C119.658 24.042 118.168 23.4172 117.024 22.1987C115.206 19.8242 115.473 16.0593 115.802 13.2474C116.037 11.7008 116.648 10.2948 117.871 9.2638C120.582 7.34232 124.924 7.12361 127.714 8.95136ZM120.222 12.4975C120.175 12.9662 120.112 13.4192 120.065 13.9035C121.977 13.9035 123.89 13.9035 125.865 13.9035C125.865 12.5912 125.865 12.5912 125.363 12.1226C123.764 11.2165 121.57 11.154 120.222 12.4975Z" fill="#EF3E3B"/>
<path d="M164.47 7.76403C164.596 7.76403 164.721 7.76403 164.847 7.76403C166.633 7.79528 168.405 8.10771 169.753 9.35746C170.74 10.4197 171.179 11.5289 171.195 12.9817C171.195 13.1379 171.195 13.2942 171.195 13.4504C171.195 13.617 171.195 13.7836 171.195 13.9503C171.195 14.1169 171.195 14.2887 171.195 14.4658C171.195 14.8303 171.195 15.1948 171.195 15.5593C171.205 16.1113 171.21 16.6633 171.21 17.2152C171.21 17.5693 171.21 17.9234 171.21 18.2775C171.21 18.5275 171.21 18.5275 171.226 18.7774C171.21 20.4021 170.928 21.6518 169.784 22.8235C169.282 23.2609 168.812 23.5265 168.185 23.7452C168.049 23.7868 167.913 23.8337 167.778 23.8858C165.238 24.6044 161.837 24.5887 159.486 23.3234C158.389 22.5891 157.824 21.7456 157.527 20.4646C157.386 18.8711 157.417 17.4339 158.373 16.0905C159.267 15.075 160.615 14.5751 161.915 14.3721C162.302 14.3616 162.694 14.3564 163.091 14.3564C163.196 14.3564 163.305 14.3564 163.42 14.3564C163.775 14.3564 164.126 14.3564 164.47 14.3564C164.711 14.3564 164.951 14.3616 165.191 14.3721C165.766 14.3721 166.346 14.3721 166.931 14.3721C166.889 14.0388 166.848 13.7107 166.806 13.3879C166.785 13.2004 166.759 13.013 166.727 12.8255C166.618 12.3412 166.555 12.1538 166.148 11.8726C165.066 11.5445 163.906 11.4195 162.856 11.8726C162.245 12.2944 162.307 12.6224 162.072 13.4348C160.787 13.4348 159.486 13.4348 158.154 13.4348C158.201 11.7476 158.436 10.5135 159.611 9.23248C160.928 8.0296 162.731 7.74841 164.47 7.76403ZM162.072 17.9651C161.649 18.59 161.649 19.1055 161.759 19.8397C162.104 20.3084 162.292 20.4333 162.856 20.6208C163.326 20.652 163.781 20.652 164.251 20.6677C164.376 20.6677 164.502 20.6677 164.627 20.6677C165.364 20.6677 165.881 20.652 166.461 20.1521C166.931 19.5585 166.978 19.1211 166.963 18.3869C166.952 18.2202 166.947 18.0484 166.947 17.8714C166.947 17.6839 166.947 17.6839 166.931 17.4964C166.357 17.486 165.782 17.4756 165.207 17.4652C165.05 17.4652 164.888 17.46 164.721 17.4496C163.718 17.4496 162.966 17.5277 162.072 17.9651Z" fill="#EF3E3B"/>
<path d="M69.578 9.29488C70.5655 10.1697 71.1141 11.3726 71.3178 12.6536C71.3283 13.0285 71.3335 13.4034 71.3335 13.7783C71.3335 13.8825 71.3335 13.9918 71.3335 14.1064C71.3335 14.4709 71.3335 14.8302 71.3335 15.1843C71.3335 15.4343 71.3335 15.6894 71.3335 15.9498C71.3335 16.6059 71.3335 17.262 71.3335 17.9181C71.3335 18.5951 71.3283 19.272 71.3178 19.949C71.3178 21.2612 71.3178 22.5786 71.3178 23.9013C69.9228 23.9013 68.5278 23.9013 67.0858 23.9013C67.0858 22.6672 67.0858 21.433 67.0858 20.152C66.3177 20.152 65.534 20.152 64.7346 20.152C64.7346 19.8396 64.7346 19.5272 64.7346 19.2147C65.5183 19.2147 66.2864 19.2147 67.0858 19.2147C67.0858 19.0064 67.0858 18.7982 67.0858 18.5899C66.3177 18.5899 65.534 18.5899 64.7346 18.5899C64.7346 18.2306 64.7346 17.8713 64.7346 17.4963C65.5183 17.4963 66.2864 17.4963 67.0858 17.4963C67.0858 17.288 67.0858 17.0798 67.0858 16.8715C66.3177 16.8715 65.534 16.8715 64.7346 16.8715C64.7346 16.5122 64.7346 16.1529 64.7346 15.7779C65.5183 15.7779 66.2864 15.7779 67.0858 15.7779C67.0701 15.4186 67.0544 15.0437 67.0231 14.6688C67.0074 14.372 67.0074 14.372 66.9917 14.0595C66.929 13.419 66.882 12.9191 66.6155 12.3411C65.8318 11.9818 65.0324 11.9818 64.1704 11.9818C63.9979 11.9818 63.9979 11.9818 63.8255 11.9662C63.0732 11.9662 62.5559 12.0756 61.9133 12.4974C61.2706 13.4815 61.349 14.6219 61.2863 15.7779C62.07 15.7779 62.838 15.7779 63.6374 15.7779C63.6374 16.1372 63.6374 16.4965 63.6374 16.8715C62.8694 16.8715 62.0857 16.8715 61.2863 16.8715C61.2863 17.0798 61.2863 17.288 61.2863 17.4963C62.07 17.4963 62.838 17.4963 63.6374 17.4963C63.6374 17.8556 63.6374 18.2149 63.6374 18.5899C62.8694 18.5899 62.0857 18.5899 61.2863 18.5899C61.2863 18.7982 61.2863 19.0064 61.2863 19.2147C62.07 19.2147 62.838 19.2147 63.6374 19.2147C63.6374 19.5272 63.6374 19.8396 63.6374 20.152C62.8694 20.152 62.0857 20.152 61.2863 20.152C61.2863 21.3862 61.2863 22.6203 61.2863 23.9013C59.8913 23.9013 58.4963 23.9013 57.0542 23.9013C57.0438 22.4953 57.0333 21.0841 57.0229 19.6678C57.0229 19.0116 57.0177 18.3555 57.0072 17.6994C56.9968 17.0641 56.9916 16.4288 56.9916 15.7936C56.9916 15.554 56.9916 15.3145 56.9916 15.075C56.9602 13.1222 57.1326 11.2164 58.4649 9.6698C61.2079 7.0922 66.6626 7.02971 69.578 9.29488Z" fill="#2A2665"/>
<path d="M40.9099 2.03076C42.3049 2.03076 43.6999 2.03076 45.1419 2.03076C45.1419 2.54628 45.1419 3.0618 45.1576 3.59294C45.168 5.30093 45.1785 7.00891 45.1889 8.7169C45.1994 9.75835 45.2046 10.7946 45.2046 11.8256C45.2151 12.8254 45.2255 13.8252 45.236 14.825C45.236 15.2 45.236 15.5801 45.236 15.9654C45.236 16.4966 45.2412 17.0277 45.2516 17.5588C45.2516 17.7255 45.2516 17.8869 45.2516 18.0431C45.2516 18.1889 45.2516 18.3347 45.2516 18.4805C45.2516 18.6055 45.2516 18.7357 45.2516 18.8711C45.2987 19.2616 45.4084 19.5116 45.6121 19.8396C46.1294 20.1208 46.1294 20.1208 47.6498 19.9959C47.6498 21.2925 47.6498 22.5735 47.6498 23.9013C45.957 24.3231 44.4836 24.4324 42.9162 23.542C41.8033 22.7922 41.1607 21.7767 40.9099 20.4645C40.8628 19.8553 40.8628 19.2616 40.8785 18.6524C40.8785 18.4753 40.8785 18.2931 40.8785 18.1056C40.8785 17.512 40.8785 16.9184 40.8785 16.3247C40.8785 15.9186 40.8785 15.5072 40.8785 15.0906C40.8785 14.122 40.8837 13.1483 40.8942 12.1693C40.8942 11.0654 40.8942 9.96144 40.8942 8.8575C40.8942 6.57671 40.8994 4.30113 40.9099 2.03076Z" fill="#2A2665"/>
<path d="M150.316 8.12329C151.711 8.12329 153.106 8.12329 154.548 8.12329C154.846 8.42011 154.721 8.87314 154.721 9.27931C154.721 9.42511 154.721 9.57091 154.721 9.71672C154.721 9.86252 154.721 10.0135 154.721 10.1697C154.721 10.6696 154.721 11.1695 154.721 11.6694C154.721 12.0131 154.721 12.362 154.721 12.7161C154.721 13.4347 154.721 14.1585 154.721 14.8875C154.721 15.8248 154.721 16.7569 154.721 17.6838C154.721 18.4024 154.721 19.1211 154.721 19.8397C154.721 20.1833 154.721 20.527 154.721 20.8707C154.721 21.3498 154.721 21.8288 154.721 22.3079C154.721 22.4537 154.721 22.5995 154.721 22.7453C154.721 23.7295 154.721 23.7295 154.548 23.9013C153.153 23.9013 151.758 23.9013 150.316 23.9013C150.316 18.6993 150.316 13.4816 150.316 8.12329Z" fill="#EF3E3B"/>
<path d="M49.6875 8.12329C51.0825 8.12329 52.4775 8.12329 53.9195 8.12329C53.9195 13.3254 53.9195 18.543 53.9195 23.9013C52.5245 23.9013 51.1295 23.9013 49.6875 23.9013C49.6875 18.6993 49.6875 13.4816 49.6875 8.12329Z" fill="#2A2665"/>
<path d="M153.452 1.24968C154.094 1.51525 154.455 1.89017 154.847 2.46818C155.113 3.24927 155.207 3.95225 154.878 4.71772C154.502 5.35822 154.157 5.81125 153.452 6.09244C152.495 6.31115 151.978 6.2799 151.1 5.78001C150.52 5.28011 150.082 4.81145 149.956 4.04598C149.941 3.1243 150.082 2.60878 150.63 1.87455C151.445 1.09346 152.386 1.07784 153.452 1.24968Z" fill="#EF3E3B"/>
<path d="M52.6649 1.24979C53.433 1.60909 53.8405 2.06212 54.2324 2.81197C54.4518 3.59306 54.4048 4.13982 54.0913 4.85843C53.7151 5.49892 53.1822 5.8426 52.5239 6.15504C51.7088 6.31126 51.1602 6.21752 50.4392 5.81136C49.7182 5.24897 49.3577 4.8428 49.2323 3.92112C49.1696 3.06192 49.3577 2.59326 49.8906 1.92153C50.69 1.09357 51.5677 1.07795 52.6649 1.24979Z" fill="#2A2665"/>
<path d="M55.3301 30.3064C55.6436 30.3064 55.957 30.3064 56.2705 30.3064C56.3176 30.9781 56.3803 31.6499 56.4273 32.3372C56.6049 32.2539 56.7878 32.1706 56.9759 32.0873C57.6812 31.8373 58.2298 31.7748 58.9352 32.0248C59.6405 32.4153 60.0637 32.8996 60.3302 33.6495C60.6436 34.7899 60.5653 35.8209 60.0324 36.8676C59.7189 37.3206 59.4367 37.5862 58.9352 37.8049C58.0417 37.9298 57.1953 38.008 56.4273 37.4924C56.375 37.5966 56.3228 37.7007 56.2705 37.8049C55.957 37.8049 55.6436 37.8049 55.3301 37.8049C55.3301 35.3366 55.3301 32.8528 55.3301 30.3064ZM56.7408 33.1183C56.1451 33.915 56.1608 34.8211 56.2705 35.774C56.4586 36.3052 56.584 36.5864 57.0229 36.93C57.4931 37.055 57.8223 37.0863 58.3082 37.0238C58.8411 36.6957 59.2016 36.3833 59.4054 35.774C59.4681 35.0086 59.4994 34.3056 59.2173 33.587C58.8881 33.2277 58.5903 33.009 58.1514 32.8059C57.5401 32.8059 57.258 32.8215 56.7408 33.1183Z" fill="#050708"/>
<path d="M79.7812 30.3064C81.333 30.3064 82.8848 30.3064 84.4835 30.3064C84.4835 30.6188 84.4835 30.9313 84.4835 31.2437C83.2453 31.2437 82.007 31.2437 80.7217 31.2437C80.7217 31.9623 80.7217 32.6809 80.7217 33.4308C81.7562 33.4308 82.7907 33.4308 83.8566 33.4308C83.8566 33.7432 83.8566 34.0556 83.8566 34.3681C82.8221 34.3681 81.7876 34.3681 80.7217 34.3681C80.7217 35.196 80.7217 36.024 80.7217 36.8676C81.96 36.8676 83.1982 36.8676 84.4835 36.8676C84.4835 37.18 84.4835 37.4924 84.4835 37.8049C82.9318 37.8049 81.38 37.8049 79.7812 37.8049C79.7812 35.3366 79.7812 32.8528 79.7812 30.3064Z" fill="#050708"/>
<path d="M35.8945 30.3064C37.4463 30.3064 38.998 30.3064 40.5968 30.3064C40.5968 30.6188 40.5968 30.9313 40.5968 31.2437C39.3585 31.2437 38.1203 31.2437 36.835 31.2437C36.835 31.9623 36.835 32.6809 36.835 33.4308C37.8695 33.4308 38.904 33.4308 39.9698 33.4308C39.9698 33.7432 39.9698 34.0556 39.9698 34.3681C38.9353 34.3681 37.9008 34.3681 36.835 34.3681C36.835 35.196 36.835 36.024 36.835 36.8676C38.0733 36.8676 39.3115 36.8676 40.5968 36.8676C40.5968 37.18 40.5968 37.4924 40.5968 37.8049C39.0451 37.8049 37.4933 37.8049 35.8945 37.8049C35.8945 35.3366 35.8945 32.8528 35.8945 30.3064Z" fill="#050708"/>
<path d="M94.4065 32.2747C94.9394 32.7433 95.2686 33.212 95.4567 33.8993C95.4567 34.368 95.4567 34.821 95.4567 35.3053C94.0617 35.3053 92.6667 35.3053 91.2246 35.3053C91.5851 36.3363 91.5851 36.3363 92.0397 36.7113C92.6353 36.9144 93.1369 36.9144 93.7325 36.7113C93.9937 36.4509 94.255 36.1905 94.5162 35.9302C94.9551 35.9614 94.9551 35.9614 95.2999 36.0864C95.2686 36.5082 95.2216 36.7738 94.9394 37.0862C93.9363 37.9141 93.1212 37.9141 91.8516 37.8048C91.0052 37.4143 90.5193 36.805 90.1744 35.9458C90.0334 34.7742 90.1117 33.79 90.7701 32.7746C91.8516 31.7435 93.0899 31.6498 94.4065 32.2747ZM91.6949 33.2745C91.3187 33.7744 91.3187 33.7744 91.2246 34.368C92.3061 34.368 93.4033 34.368 94.5162 34.368C94.2968 33.4932 94.2968 33.4932 93.7325 32.962C92.8861 32.7746 92.3845 32.6808 91.6949 33.2745Z" fill="#050708"/>
<path d="M118.34 30.3064C122.102 30.3064 122.102 30.3064 123.042 30.9313C123.559 31.4937 123.638 31.9779 123.685 32.7122C123.653 33.5245 123.309 34.1181 122.713 34.6649C122.243 34.9305 121.851 35.0086 121.318 35.0086C121.161 35.0086 121.161 35.0086 120.989 35.0086C120.853 35.0086 120.717 35.0086 120.581 35.0086C120.158 34.9929 119.719 34.9929 119.28 34.9929C119.28 35.9146 119.28 36.8519 119.28 37.8049C118.967 37.8049 118.653 37.8049 118.34 37.8049C118.34 35.3366 118.34 32.8528 118.34 30.3064ZM119.28 31.2437C119.28 32.1654 119.28 33.1027 119.28 34.0556C119.672 34.0713 120.08 34.0869 120.487 34.1025C120.613 34.1129 120.738 34.1233 120.863 34.1337C121.49 34.1337 121.725 34.1025 122.258 33.712C122.572 33.2745 122.682 33.0871 122.666 32.5559C122.666 32.4414 122.666 32.3268 122.666 32.2123C122.525 31.7124 122.368 31.5405 121.945 31.2437C121.49 31.1656 121.036 31.1812 120.566 31.2125C119.939 31.2281 119.939 31.2281 119.28 31.2437Z" fill="#050708"/>
<path d="M47.0234 30.3064C47.2847 30.3064 47.5459 30.3064 47.8072 30.3064C47.8542 31.025 47.9169 31.7436 47.9639 32.4935C48.1729 32.3372 48.3819 32.181 48.5909 32.0248C49.4059 31.8217 50.0015 31.8373 50.7853 32.181C51.3025 32.6497 51.663 33.0871 51.8825 33.7432C51.8929 34.0556 51.8981 34.3681 51.8981 34.6805C51.8981 34.8576 51.8981 35.0398 51.8981 35.2273C51.8981 35.4147 51.8981 35.6074 51.8981 35.8053C51.8981 35.9927 51.8929 36.1854 51.8825 36.3833C51.8825 36.8624 51.8825 37.3362 51.8825 37.8049C51.569 37.8049 51.2555 37.8049 50.942 37.8049C50.942 37.7111 50.942 37.6122 50.942 37.5081C50.9211 37.0602 50.9054 36.6072 50.895 36.149C50.895 36.0032 50.8898 35.8469 50.8793 35.6803C50.848 34.7742 50.7696 34.0713 50.315 33.2745C49.8918 32.9933 49.8918 32.9933 49.3746 32.9621C48.779 33.1183 48.779 33.1183 48.2774 33.4308C48.1206 33.915 48.0893 34.29 48.0736 34.8055C48.0632 34.9721 48.0579 35.1492 48.0579 35.3366C48.0475 35.5137 48.037 35.6959 48.0266 35.8834C48.0266 36.1646 48.0266 36.1646 48.0109 36.4458C47.99 36.8936 47.9743 37.3466 47.9639 37.8049C47.6504 37.8049 47.3369 37.8049 47.0234 37.8049C47.0234 35.3366 47.0234 32.8528 47.0234 30.3064Z" fill="#050708"/>
<path d="M144.016 32.2278C144.407 32.5402 144.705 32.8527 144.987 33.2744C144.987 33.4307 144.987 33.5869 144.987 33.7431C144.627 33.79 144.266 33.8525 143.89 33.8993C143.838 33.639 143.786 33.3786 143.733 33.1182C143.451 33.087 143.174 33.0557 142.903 33.0245C142.668 32.9933 142.668 32.9933 142.433 32.962C141.978 32.9151 141.978 32.9151 141.539 33.2744C141.539 33.4827 141.539 33.691 141.539 33.8993C141.774 33.9774 141.774 33.9774 142.025 34.0555C142.234 34.118 142.443 34.1805 142.652 34.243C142.756 34.2847 142.861 34.3211 142.965 34.3524C143.671 34.5711 144.235 34.8523 144.831 35.3053C145.097 35.852 144.972 36.4457 144.831 37.0237C144.486 37.4923 144.298 37.6173 143.733 37.8048C141.633 37.961 141.633 37.961 140.959 37.5236C140.599 37.1799 140.599 37.1799 140.285 36.7112C140.285 36.503 140.285 36.2947 140.285 36.0864C140.724 36.0395 140.724 36.0395 141.226 36.0864C141.492 36.3832 141.492 36.3832 141.696 36.7112C142.244 36.8987 142.683 36.8987 143.263 36.8675C143.42 36.7633 143.577 36.6592 143.733 36.555C143.781 36.1489 143.781 36.1489 143.733 35.7739C143.545 35.7115 143.357 35.649 143.169 35.5865C142.929 35.5032 142.689 35.4198 142.448 35.3365C142.323 35.3053 142.197 35.2688 142.072 35.2272C141.398 34.9928 140.881 34.8054 140.442 34.2118C140.332 33.4463 140.317 33.1495 140.771 32.509C141.79 31.7748 142.856 31.6966 144.016 32.2122V32.2278Z" fill="#050708"/>
<path d="M134.329 32.1809C135.097 32.8839 135.395 33.6182 135.457 34.6336C135.457 35.1126 135.452 35.5917 135.442 36.0708C135.442 36.2374 135.442 36.4093 135.442 36.5863C135.442 36.9925 135.436 37.3986 135.426 37.8048C135.065 37.8048 134.705 37.8048 134.329 37.8048C134.329 37.6902 134.329 37.5757 134.329 37.4611C134.308 36.9404 134.292 36.4197 134.282 35.8989C134.282 35.7219 134.276 35.5396 134.266 35.3522C134.266 35.1022 134.266 35.1022 134.25 34.8367C134.25 34.67 134.245 34.5086 134.235 34.3524C134.156 33.8369 134.015 33.5244 133.702 33.1183C133.2 32.9464 132.855 32.9464 132.338 33.0401C131.821 33.3682 131.664 33.8056 131.507 34.368C131.429 34.9616 131.413 35.5553 131.398 36.1489C131.398 36.3155 131.392 36.4769 131.382 36.6332C131.372 37.0289 131.361 37.4195 131.351 37.8048C131.037 37.8048 130.724 37.8048 130.41 37.8048C130.41 35.8989 130.41 33.9931 130.41 32.0247C130.724 32.0247 131.037 32.0247 131.351 32.0247C131.403 32.1809 131.455 32.3372 131.507 32.4934C131.591 32.4205 131.68 32.3476 131.774 32.2747C132.589 31.7123 133.435 31.8373 134.329 32.1809Z" fill="#050708"/>
<path d="M100.002 32.1809C100.692 32.6339 101.005 33.0089 101.178 33.8056C101.287 34.5867 101.272 35.3521 101.272 36.1489C101.272 36.3051 101.266 36.4665 101.256 36.6331C101.256 37.0185 101.256 37.409 101.256 37.8048C100.895 37.8048 100.535 37.8048 100.159 37.8048C100.159 37.6902 100.159 37.5756 100.159 37.4611C100.138 36.9404 100.122 36.4196 100.112 35.8989C100.112 35.7219 100.107 35.5396 100.096 35.3521C100.096 35.1022 100.096 35.1022 100.08 34.8366C100.08 34.67 100.075 34.5086 100.065 34.3523C99.9864 33.8368 99.8453 33.5244 99.5318 33.1182C99.0146 32.9464 98.7011 32.9464 98.1682 33.0557C97.6509 33.3682 97.5569 33.6337 97.3374 34.2118C97.2591 34.8366 97.2434 35.4459 97.2277 36.0707C97.2277 36.2374 97.2225 36.404 97.212 36.5706C97.2016 36.9872 97.1911 37.3986 97.1807 37.8048C96.8672 37.8048 96.5537 37.8048 96.2402 37.8048C96.2402 35.8989 96.2402 33.993 96.2402 32.0247C96.5537 32.0247 96.8672 32.0247 97.1807 32.0247C97.2329 32.1288 97.2852 32.233 97.3374 32.3371C97.421 32.2955 97.5099 32.259 97.6039 32.2278C98.4973 31.8841 99.1086 31.7904 100.002 32.1809Z" fill="#050708"/>
<path d="M109.94 32.3059C110.347 32.6496 110.582 32.9464 110.818 33.4307C110.818 33.5349 110.818 33.639 110.818 33.7432C110.457 33.79 110.096 33.8525 109.72 33.8994C109.642 33.7119 109.642 33.7119 109.579 33.5244C109.203 33.0558 109.109 33.0402 108.545 32.9777C107.98 32.9152 107.871 32.9464 107.369 33.2745C107.369 33.4828 107.369 33.6911 107.369 33.8994C107.526 33.9514 107.688 34.0035 107.855 34.0556C108.064 34.1181 108.278 34.1858 108.498 34.2587C108.602 34.2899 108.707 34.3264 108.811 34.368C110.253 34.8367 110.253 34.8367 110.723 35.4147C110.865 35.9614 110.802 36.3364 110.661 36.8675C110.316 37.2737 110.034 37.5705 109.564 37.8048C107.463 37.961 107.463 37.961 106.789 37.5236C106.429 37.18 106.429 37.18 106.115 36.7113C106.115 36.503 106.115 36.2947 106.115 36.0864C106.554 36.0396 106.554 36.0396 107.056 36.0864C107.322 36.3832 107.322 36.3832 107.526 36.7113C108.075 36.8988 108.513 36.8988 109.093 36.8675C109.25 36.7634 109.407 36.6592 109.564 36.5551C109.611 36.1489 109.611 36.1489 109.564 35.774C109.375 35.7115 109.187 35.649 108.999 35.5865C108.759 35.5032 108.519 35.4199 108.278 35.3366C108.153 35.3053 108.027 35.2689 107.902 35.2272C107.228 34.9929 106.711 34.8054 106.272 34.2118C106.162 33.4307 106.131 33.1495 106.601 32.509C107.683 31.7279 108.764 31.6967 109.94 32.2903V32.3059Z" fill="#050708"/>
<path d="M71.3812 32.3059C71.7887 32.6496 72.0238 32.9464 72.2589 33.4307C72.2589 33.5349 72.2589 33.639 72.2589 33.7432C71.8984 33.79 71.5379 33.8525 71.1617 33.8994C71.0833 33.7119 71.0833 33.7119 71.0207 33.5244C70.6445 33.0558 70.5504 33.0402 69.9862 32.9777C69.4219 32.9152 69.3122 32.9464 68.8106 33.2745C68.8106 33.4828 68.8106 33.6911 68.8106 33.8994C68.9673 33.9514 69.1293 34.0035 69.2965 34.0556C69.5055 34.1181 69.7197 34.1858 69.9391 34.2587C70.0436 34.2899 70.1481 34.3264 70.2526 34.368C71.6946 34.8367 71.6946 34.8367 72.1649 35.4147C72.3059 35.9614 72.2432 36.3364 72.1022 36.8675C71.7573 37.2737 71.4752 37.5705 71.005 37.8048C68.9046 37.961 68.9046 37.961 68.2306 37.5236C67.8701 37.18 67.8701 37.18 67.5566 36.7113C67.5566 36.503 67.5566 36.2947 67.5566 36.0864C67.9955 36.0396 67.9955 36.0396 68.4971 36.0864C68.7636 36.3832 68.7636 36.3832 68.9673 36.7113C69.5159 36.8988 69.9548 36.8988 70.5347 36.8675C70.6915 36.7634 70.8482 36.6592 71.005 36.5551C71.052 36.1489 71.052 36.1489 71.005 35.774C70.8169 35.7115 70.6288 35.649 70.4407 35.5865C70.2004 35.5032 69.96 35.4199 69.7197 35.3366C69.5943 35.3053 69.4689 35.2689 69.3435 35.2272C68.6695 34.9929 68.1523 34.8054 67.7134 34.2118C67.6037 33.4307 67.5723 33.1495 68.0425 32.509C69.1241 31.7279 70.2056 31.6967 71.3812 32.2903V32.3059Z" fill="#050708"/>
<path d="M41.0664 32.0246C41.4896 31.9778 41.4896 31.9778 42.0069 32.0246C42.3517 32.3215 42.3517 32.3215 42.6652 32.6964C42.8219 32.8838 42.8219 32.8838 42.9787 33.0713C43.0727 33.1963 43.1668 33.3161 43.2608 33.4306C43.4175 33.5868 43.5743 33.743 43.731 33.8993C43.8355 33.7639 43.94 33.6285 44.0445 33.4931C44.1804 33.3161 44.3162 33.139 44.452 32.962C44.5252 32.8682 44.5931 32.7797 44.6558 32.6964C44.8596 32.4308 44.8596 32.4308 45.2985 32.0246C45.8157 31.9622 45.8157 31.9622 46.2389 32.0246C46.1449 32.5089 46.0038 32.8057 45.6903 33.1963C45.6172 33.29 45.5388 33.3837 45.4552 33.4775C45.3716 33.5816 45.288 33.6858 45.2044 33.7899C45.1313 33.8836 45.0529 33.9826 44.9693 34.0867C44.7603 34.3367 44.5565 34.5866 44.358 34.8366C44.9536 35.6385 45.5649 36.4248 46.1919 37.1955C46.3957 37.4923 46.3957 37.4923 46.3957 37.8047C45.8941 37.8672 45.8941 37.8672 45.2985 37.8047C44.9379 37.5235 44.7028 37.1642 44.452 36.7893C44.3789 36.6956 44.3058 36.5966 44.2326 36.4925C44.0654 36.253 43.8982 36.0134 43.731 35.7739C43.5586 35.9926 43.5586 35.9926 43.3862 36.2113C43.2295 36.4092 43.0779 36.6018 42.9316 36.7893C42.8585 36.883 42.7801 36.982 42.6965 37.0861C42.1323 37.7891 42.1323 37.7891 41.4739 37.8672C41.3381 37.8464 41.2022 37.8256 41.0664 37.8047C41.1605 37.3204 41.3015 37.0236 41.615 36.6331C41.6882 36.5394 41.7665 36.4456 41.8501 36.3519C41.9337 36.2477 42.0173 36.1488 42.1009 36.0551C42.1741 35.9509 42.2524 35.8468 42.336 35.7426C42.545 35.4927 42.7488 35.2427 42.9473 34.9928C42.5711 34.2898 42.1636 33.6806 41.662 33.0713C41.0664 32.3683 41.0664 32.3683 41.0664 32.0246Z" fill="#050708"/>
<path d="M84.9551 32.0247C85.2686 32.0247 85.582 32.0247 85.8955 32.0247C86.5225 33.3369 86.9927 34.7116 87.463 36.0863C87.5048 35.9718 87.5466 35.8572 87.5884 35.7427C87.7764 35.2428 87.9645 34.7376 88.1526 34.2273C88.2258 34.0503 88.2937 33.8732 88.3564 33.6962C88.4191 33.5296 88.4818 33.3577 88.5445 33.1807C88.6072 33.0349 88.6699 32.8787 88.7326 32.712C88.8736 32.3371 88.8736 32.3371 89.0304 32.0247C89.3439 32.0247 89.6574 32.0247 89.9708 32.0247C89.8611 32.6808 89.6574 33.3056 89.4222 33.9305C89.3909 34.0347 89.3543 34.144 89.3125 34.2586C89.2289 34.4773 89.1506 34.7012 89.0774 34.9303C88.952 35.2636 88.8266 35.6021 88.7012 35.9457C88.6281 36.1644 88.5549 36.3831 88.4818 36.6019C88.44 36.706 88.4034 36.8101 88.3721 36.9143C88.1056 37.6329 88.1056 37.6329 87.9332 37.8047C87.6197 37.8151 87.3062 37.8151 86.9927 37.8047C86.7001 37.0341 86.4076 36.2634 86.115 35.4927C86.0209 35.2219 85.9269 34.9564 85.8328 34.696C85.6865 34.3211 85.5402 33.9461 85.394 33.5712C85.3522 33.4462 85.3104 33.3265 85.2686 33.2119C84.9551 32.3683 84.9551 32.3683 84.9551 32.0247Z" fill="#050708"/>
<path d="M102.824 30.6187C103.137 30.6187 103.451 30.6187 103.764 30.6187C103.764 31.0873 103.764 31.5403 103.764 32.0246C104.328 32.0246 104.908 32.0246 105.488 32.0246C105.488 32.3371 105.488 32.6495 105.488 32.9619C104.924 32.9619 104.344 32.9619 103.764 32.9619C103.785 33.5243 103.806 34.0919 103.827 34.6647C103.837 34.8209 103.848 34.9823 103.858 35.149C103.858 35.3833 103.858 35.3833 103.874 35.6176C103.874 35.7634 103.879 35.9092 103.89 36.055C103.905 36.3987 103.905 36.3987 104.078 36.7112C104.407 36.7893 104.407 36.7893 104.799 36.8049C104.924 36.8153 105.055 36.8309 105.191 36.8518C105.285 36.8518 105.384 36.857 105.488 36.8674C105.488 37.1798 105.488 37.4923 105.488 37.8047C103.78 37.8984 103.78 37.8984 103.137 37.336C102.808 36.8205 102.792 36.43 102.792 35.8363C102.792 35.6697 102.792 35.4979 102.792 35.3208C102.792 35.1542 102.798 34.9771 102.808 34.7897C102.808 34.623 102.808 34.446 102.808 34.2585C102.808 33.8315 102.813 33.3993 102.824 32.9619C102.463 32.9619 102.103 32.9619 101.727 32.9619C101.727 32.6495 101.727 32.3371 101.727 32.0246C102.087 32.0246 102.448 32.0246 102.824 32.0246C102.824 31.556 102.824 31.1029 102.824 30.6187Z" fill="#050708"/>
<path d="M64.2652 30.6187C64.5787 30.6187 64.8921 30.6187 65.2056 30.6187C65.2056 31.0873 65.2056 31.5403 65.2056 32.0246C65.7699 32.0246 66.3498 32.0246 66.9298 32.0246C66.9298 32.3371 66.9298 32.6495 66.9298 32.9619C66.3655 32.9619 65.7856 32.9619 65.2056 32.9619C65.2265 33.5243 65.2474 34.0919 65.2683 34.6647C65.2788 34.8209 65.2892 34.9823 65.2997 35.149C65.2997 35.3833 65.2997 35.3833 65.3153 35.6176C65.3153 35.7634 65.3206 35.9092 65.331 36.055C65.3467 36.3987 65.3467 36.3987 65.5191 36.7112C65.8483 36.7893 65.8483 36.7893 66.2401 36.8049C66.3655 36.8153 66.4961 36.8309 66.632 36.8518C66.726 36.8518 66.8253 36.857 66.9298 36.8674C66.9298 37.1798 66.9298 37.4923 66.9298 37.8047C65.2213 37.8984 65.2213 37.8984 64.5787 37.336C64.2495 36.8205 64.2338 36.43 64.2338 35.8363C64.2338 35.6697 64.2338 35.4979 64.2338 35.3208C64.2338 35.1542 64.239 34.9771 64.2495 34.7897C64.2495 34.623 64.2495 34.446 64.2495 34.2585C64.2495 33.8315 64.2547 33.3993 64.2652 32.9619C63.9047 32.9619 63.5442 32.9619 63.168 32.9619C63.168 32.6495 63.168 32.3371 63.168 32.0246C63.5285 32.0246 63.889 32.0246 64.2652 32.0246C64.2652 31.556 64.2652 31.1029 64.2652 30.6187Z" fill="#050708"/>
<path d="M136.994 30.6187C137.307 30.6187 137.621 30.6187 137.934 30.6187C137.934 31.0873 137.934 31.5403 137.934 32.0246C138.498 32.0246 139.078 32.0246 139.658 32.0246C139.658 32.3371 139.658 32.6495 139.658 32.9619C139.094 32.9619 138.514 32.9619 137.934 32.9619C137.955 33.5035 137.976 34.0398 137.997 34.571C138.007 34.7272 138.018 34.8834 138.028 35.0396C138.028 35.2583 138.028 35.2583 138.044 35.477C138.044 35.6124 138.049 35.7478 138.06 35.8832C138.075 36.2738 138.075 36.2738 138.248 36.7112C138.718 36.758 139.172 36.8205 139.658 36.8674C139.658 37.1798 139.658 37.4923 139.658 37.8047C137.95 37.8984 137.95 37.8984 137.307 37.336C136.978 36.8205 136.962 36.43 136.962 35.8363C136.962 35.6697 136.962 35.4979 136.962 35.3208C136.962 35.1542 136.968 34.9771 136.978 34.7897C136.978 34.623 136.978 34.446 136.978 34.2585C136.978 33.8315 136.983 33.3993 136.994 32.9619C136.633 32.9619 136.273 32.9619 135.896 32.9619C135.896 32.6495 135.896 32.3371 135.896 32.0246C136.257 32.0246 136.618 32.0246 136.994 32.0246C136.994 31.556 136.994 31.1029 136.994 30.6187Z" fill="#050708"/>
<path d="M174.345 1.98398C175.051 2.37453 175.458 2.82756 175.709 3.59303C175.787 4.46785 175.834 5.2177 175.443 6.01441C174.674 6.84237 174.032 7.27978 172.888 7.34227C171.947 7.20167 171.305 6.84237 170.693 6.09252C170.552 5.92068 170.552 5.92068 170.411 5.74884C170.066 4.92088 170.113 4.07731 170.395 3.23373C171.352 1.87463 172.747 1.23414 174.345 1.98398ZM171.179 3.09313C170.803 3.67114 170.693 3.98358 170.693 4.68656C170.834 5.37392 171.054 5.82695 171.555 6.31123C172.214 6.73302 172.747 6.76426 173.515 6.71739C174.251 6.45182 174.643 6.10814 175.082 5.46765C175.348 4.67094 175.317 4.10855 175.004 3.32746C174.612 2.70259 174.047 2.40577 173.358 2.18707C172.402 2.18707 171.853 2.45264 171.179 3.09313Z" fill="#050708"/>
<path d="M124.453 32.0246C124.714 32.0246 124.976 32.0246 125.237 32.0246C125.289 32.1809 125.341 32.3371 125.394 32.4933C125.529 32.4204 125.665 32.3423 125.801 32.259C126.35 32.0246 126.679 31.9778 127.274 32.0246C127.274 32.3371 127.274 32.6495 127.274 32.9619C126.961 33.014 126.648 33.0713 126.334 33.1338C125.879 33.3369 125.77 33.6024 125.55 34.0555C125.472 34.4929 125.472 34.4929 125.472 34.9459C125.462 35.1125 125.456 35.2844 125.456 35.4614C125.446 35.6281 125.441 35.7999 125.441 35.977C125.441 36.154 125.435 36.331 125.425 36.5081C125.414 36.9455 125.404 37.3777 125.394 37.8047C125.08 37.8047 124.767 37.8047 124.453 37.8047C124.453 35.8988 124.453 33.993 124.453 32.0246Z" fill="#050708"/>
<path d="M128.215 32.0247C128.528 32.0247 128.842 32.0247 129.155 32.0247C129.155 33.9305 129.155 35.8364 129.155 37.8047C128.842 37.8047 128.528 37.8047 128.215 37.8047C128.215 35.8989 128.215 33.993 128.215 32.0247Z" fill="#050708"/>
<path d="M61.4434 32.0247C61.7568 32.0247 62.0703 32.0247 62.3838 32.0247C62.3838 33.9305 62.3838 35.8364 62.3838 37.8047C62.0703 37.8047 61.7568 37.8047 61.4434 37.8047C61.4434 35.8989 61.4434 33.993 61.4434 32.0247Z" fill="#050708"/>
<path d="M53.1348 32.0247C53.4483 32.0247 53.7617 32.0247 54.0752 32.0247C54.0752 33.9305 54.0752 35.8364 54.0752 37.8047C53.7617 37.8047 53.4483 37.8047 53.1348 37.8047C53.1348 35.8989 53.1348 33.993 53.1348 32.0247Z" fill="#050708"/>
<path d="M172.104 3.12437C173.389 3.04626 173.389 3.04626 173.922 3.37432C174.141 3.74925 174.141 3.74925 174.11 4.23352C173.984 4.68655 173.984 4.68655 173.828 4.99899C173.984 5.23332 173.984 5.23332 174.141 5.46765C174.089 5.62386 174.037 5.78008 173.984 5.9363C173.687 5.81133 173.687 5.81133 173.357 5.62386C173.248 5.29581 173.248 5.29581 173.201 4.99899C172.992 4.99899 172.783 4.99899 172.574 4.99899C172.574 5.25935 172.574 5.51972 172.574 5.78008C172.417 5.78008 172.26 5.78008 172.104 5.78008C172.104 4.90526 172.104 4.03044 172.104 3.12437ZM172.574 3.74925C172.574 3.95754 172.574 4.16583 172.574 4.37412C172.835 4.37412 173.096 4.37412 173.357 4.37412C173.357 4.16583 173.357 3.95754 173.357 3.74925C173.096 3.74925 172.835 3.74925 172.574 3.74925Z" fill="#050708"/>
<path d="M113.795 36.7112C114.155 36.7112 114.516 36.7112 114.892 36.7112C114.892 37.0705 114.892 37.4298 114.892 37.8047C114.532 37.8047 114.171 37.8047 113.795 37.8047C113.795 37.4454 113.795 37.0861 113.795 36.7112Z" fill="#050708"/>
<path d="M75.2363 36.7112C75.5968 36.7112 75.9573 36.7112 76.3335 36.7112C76.3335 37.0705 76.3335 37.4298 76.3335 37.8047C75.973 37.8047 75.6125 37.8047 75.2363 37.8047C75.2363 37.4454 75.2363 37.0861 75.2363 36.7112Z" fill="#050708"/>
<path d="M128.215 30.1501C128.528 30.1501 128.842 30.1501 129.155 30.1501C129.155 30.5094 129.155 30.8688 129.155 31.2437C128.842 31.2437 128.528 31.2437 128.215 31.2437C128.215 30.8844 128.215 30.5251 128.215 30.1501Z" fill="#050708"/>
<path d="M61.4434 30.1501C61.7568 30.1501 62.0703 30.1501 62.3838 30.1501C62.3838 30.5094 62.3838 30.8688 62.3838 31.2437C62.0703 31.2437 61.7568 31.2437 61.4434 31.2437C61.4434 30.8844 61.4434 30.5251 61.4434 30.1501Z" fill="#050708"/>
<path d="M53.1348 30.1501C53.4483 30.1501 53.7617 30.1501 54.0752 30.1501C54.0752 30.5094 54.0752 30.8688 54.0752 31.2437C53.7617 31.2437 53.4483 31.2437 53.1348 31.2437C53.1348 30.8844 53.1348 30.5251 53.1348 30.1501Z" fill="#050708"/>
</svg>
