<?xml version="1.0" encoding="UTF-8"?>
<svg version="1.1" xmlns="http://www.w3.org/2000/svg" width="1088" height="278">
<path d="M0 0 C1.90977767 1.65179016 3.69570039 3.32763348 5.4140625 5.17578125 C6.12369141 4.59570312 6.12369141 4.59570312 6.84765625 4.00390625 C18.29636875 -5.01223381 28.99703784 -6.59350663 43.4140625 -5.82421875 C53.61876981 -4.48626824 63.07952031 -1.30194715 69.7890625 6.86328125 C75.53418543 15.34262698 77.54635409 25.00290632 77.52758789 35.09912109 C77.52773392 35.76324005 77.52787994 36.42735901 77.5280304 37.11160278 C77.52733884 39.28667574 77.51958223 41.46166093 77.51171875 43.63671875 C77.50985188 45.15271966 77.50842925 46.66872117 77.50743103 48.1847229 C77.50362706 52.15982756 77.49381503 56.13489523 77.48272705 60.10998535 C77.4724672 64.17227681 77.46792364 68.23457429 77.46289062 72.296875 C77.45219072 80.25652922 77.43461124 88.21614636 77.4140625 96.17578125 C68.5040625 96.17578125 59.5940625 96.17578125 50.4140625 96.17578125 C50.39947998 94.21310303 50.38489746 92.2504248 50.36987305 90.22827148 C50.31811931 83.72618264 50.25280597 77.22433919 50.17834759 70.72247219 C50.13371824 66.78236901 50.09444612 62.84236746 50.06762695 58.90209961 C50.04151923 55.09583231 50.00106506 51.28995765 49.95087624 47.4839344 C49.93425776 46.03561366 49.92271232 44.58722509 49.91644859 43.13882256 C50.06407379 32.71696618 50.06407379 32.71696618 46.4140625 23.17578125 C42.59805108 20.63177364 39.45991394 20.84461211 35.0390625 20.86328125 C34.28367187 20.84716797 33.52828125 20.83105469 32.75 20.81445312 C29.42038818 20.81154263 26.69620364 21.08917224 23.5 22.0703125 C18.14445169 27.47600639 19.19341316 37.48379471 19.21311951 44.58351135 C19.23330894 46.5028373 19.23330894 46.5028373 19.25390625 48.4609375 C19.2601909 49.81188016 19.26542623 51.16282807 19.26966858 52.51377869 C19.28285128 56.0364154 19.30724668 59.55887231 19.33502197 63.0814209 C19.3784928 68.74995302 19.40781242 74.41853964 19.4310627 80.08718681 C19.44129451 82.06434494 19.45863751 84.0414621 19.47605896 86.01856995 C19.48585533 87.80194008 19.48585533 87.80194008 19.49584961 89.62133789 C19.50410263 90.67261368 19.51235565 91.72388947 19.52085876 92.80702209 C19.4140625 95.17578125 19.4140625 95.17578125 18.4140625 96.17578125 C16.48738743 96.26326332 14.55754389 96.28275459 12.62890625 96.2734375 C10.87416992 96.26860352 10.87416992 96.26860352 9.08398438 96.26367188 C7.85228516 96.25529297 6.62058594 96.24691406 5.3515625 96.23828125 C3.49821289 96.23151367 3.49821289 96.23151367 1.60742188 96.22460938 C-1.45707867 96.21277733 -4.52148471 96.19629298 -7.5859375 96.17578125 C-7.59180374 95.32244705 -7.59766998 94.46911285 -7.60371399 93.58992004 C-7.66165726 85.54156244 -7.73374334 77.49348186 -7.82165241 69.44539356 C-7.86634861 65.30793524 -7.90560625 61.17057522 -7.93237305 57.03295898 C-7.95841374 53.03867702 -7.99882118 49.04477346 -8.04912376 45.05072594 C-8.06578738 43.52818197 -8.07730483 42.00557255 -8.08355141 40.48295021 C-8.09319838 38.34736239 -8.12126243 36.2127415 -8.15356445 34.07739258 C-8.17021904 32.25538078 -8.17021904 32.25538078 -8.18721008 30.39656067 C-8.62357521 26.87175713 -9.41237669 24.9654516 -11.5859375 22.17578125 C-15.24444105 20.95628007 -18.64997319 20.95324766 -22.4609375 20.92578125 C-23.16863281 20.90515625 -23.87632812 20.88453125 -24.60546875 20.86328125 C-29.11321178 20.82970402 -32.1526206 21.16054353 -35.5859375 24.17578125 C-37.37486756 28.50978099 -37.85115738 32.24991118 -37.90478516 36.91552734 C-37.91483078 37.56013916 -37.9248764 38.20475098 -37.93522644 38.86889648 C-37.96587794 40.97899563 -37.98304255 43.08896899 -38 45.19921875 C-38.01872624 46.67039051 -38.03830072 48.1415517 -38.0586853 49.61270142 C-38.10985899 53.46935776 -38.14956328 57.32604886 -38.18682861 61.18286133 C-38.22696126 65.12459814 -38.27801119 69.06619218 -38.328125 73.0078125 C-38.42470937 80.7303779 -38.50815954 88.45299935 -38.5859375 96.17578125 C-47.4959375 96.17578125 -56.4059375 96.17578125 -65.5859375 96.17578125 C-65.65405409 87.51693992 -65.70894843 78.8582802 -65.74137402 70.19923019 C-65.75694649 66.17731419 -65.77802818 62.155593 -65.81225586 58.13378906 C-65.84515317 54.24340179 -65.86285359 50.3532004 -65.87056923 46.46268463 C-65.87605883 44.98771494 -65.88677649 43.51275396 -65.90312767 42.03786469 C-66.0515214 28.08159697 -64.64870257 15.14729921 -54.95703125 4.36328125 C-41.45457917 -8.16799678 -15.08970669 -10.64485351 0 0 Z " fill="#EF3E3B" transform="translate(616.5859375,70.82421875)"/>
<path d="M0 0 C10.83545435 8.90915136 14.36105156 21.16925889 18 34.3125 C18.40525084 35.752191 18.81078139 37.19180328 19.21655273 38.63134766 C24.06944458 55.94602389 28.70383727 73.32310338 33.375 90.6875 C33.57997982 91.44927551 33.78495964 92.21105103 33.99615097 92.99591064 C35.19064431 97.4362119 36.38287201 101.87711186 37.57194901 106.31886673 C37.94004512 107.69326653 38.30863527 109.06753412 38.67774582 110.44166183 C39.18850773 112.3439879 39.69696646 114.24693189 40.20532227 116.14990234 C40.49270767 117.22347992 40.78009308 118.2970575 41.07618713 119.40316772 C41.73844404 122.01988878 42.28313851 124.66569255 42.8125 127.3125 C33.5725 127.3125 24.3325 127.3125 14.8125 127.3125 C13.86375 124.05375 12.915 120.795 11.9375 117.4375 C11.64246582 116.43219238 11.34743164 115.42688477 11.04345703 114.39111328 C10.80481934 113.56337402 10.56618164 112.73563477 10.3203125 111.8828125 C10.07941895 111.05539551 9.83852539 110.22797852 9.59033203 109.37548828 C8.49462336 105.06074848 7.68554853 100.67774264 6.8125 96.3125 C-10.0175 96.3125 -26.8475 96.3125 -44.1875 96.3125 C-44.8475 99.9425 -45.5075 103.5725 -46.1875 107.3125 C-47.00607949 110.70412221 -47.84642054 114.06985666 -48.75 117.4375 C-48.97107422 118.28570312 -49.19214844 119.13390625 -49.41992188 120.0078125 C-51.05763529 126.18263529 -51.05763529 126.18263529 -52.1875 127.3125 C-54.18714982 127.40008003 -56.1898611 127.41946576 -58.19140625 127.41015625 C-59.40634766 127.40693359 -60.62128906 127.40371094 -61.87304688 127.40039062 C-63.15244141 127.39201172 -64.43183594 127.38363281 -65.75 127.375 C-67.03326172 127.37048828 -68.31652344 127.36597656 -69.63867188 127.36132812 C-72.82166022 127.34949545 -76.00455762 127.33301068 -79.1875 127.3125 C-78.59087071 121.67461304 -77.56773447 116.39781889 -76.07373047 110.93481445 C-75.86049637 110.13832489 -75.64726227 109.34183533 -75.42756653 108.52120972 C-74.72540507 105.90456055 -74.01535844 103.29013102 -73.3046875 100.67578125 C-72.80692565 98.83188193 -72.30946404 96.98790153 -71.81228638 95.1438446 C-70.76840259 91.27712991 -69.7205433 87.41152011 -68.66992188 83.54663086 C-67.34105257 78.65674649 -66.02248025 73.76415827 -64.70709038 68.87063313 C-63.68019155 65.05549322 -62.64734461 61.24198146 -61.61288834 57.42888451 C-61.12557732 55.62974806 -60.64005436 53.8301261 -60.15655136 52.02996254 C-57.5250135 42.24530392 -54.70917227 32.54383107 -51.55126953 22.91479492 C-51.26875776 22.04205838 -50.98624599 21.16932184 -50.69517326 20.27013874 C-47.85550486 11.78197344 -43.84818588 4.09148032 -36.046875 -0.79296875 C-25.48387936 -5.87474606 -10.30041881 -5.4531629 0 0 Z M-23.80712891 22.50976562 C-25.52039535 24.74725403 -26.10187995 26.68566426 -26.8359375 29.40625 C-27.11687256 30.42831543 -27.39780762 31.45038086 -27.68725586 32.50341797 C-27.97608643 33.59541504 -28.26491699 34.68741211 -28.5625 35.8125 C-28.86486572 36.92641113 -29.16723145 38.04032227 -29.47875977 39.18798828 C-30.39119276 42.56034834 -31.28960264 45.93624568 -32.1875 49.3125 C-32.7087884 51.23720877 -33.230863 53.16170487 -33.75390625 55.0859375 C-34.21184334 56.78621462 -34.66893078 58.4867209 -35.125 60.1875 C-35.33624512 60.97060547 -35.54749023 61.75371094 -35.76513672 62.56054688 C-36.55579454 65.56195652 -37.1875 68.19418074 -37.1875 71.3125 C-24.9775 71.3125 -12.7675 71.3125 -0.1875 71.3125 C-1.38473772 64.72769253 -2.56279749 58.37019468 -4.28125 51.94140625 C-4.56953674 50.84698463 -4.56953674 50.84698463 -4.86364746 49.73045349 C-5.26491539 48.21175622 -5.66828206 46.69361194 -6.07373047 45.17602539 C-6.69239354 42.85665407 -7.30164515 40.5349436 -7.91015625 38.21289062 C-8.30413125 36.72641496 -8.69864295 35.24008142 -9.09375 33.75390625 C-9.27401733 33.06535049 -9.45428467 32.37679474 -9.64001465 31.66737366 C-10.5275384 28.36997783 -11.37353988 25.2272203 -13.1875 22.3125 C-16.50224291 20.65512854 -20.72880363 20.23419928 -23.80712891 22.50976562 Z " fill="#FFFFFF" transform="translate(79.1875,39.6875)"/>
<path d="M0 0 C8.91 0 17.82 0 27 0 C27.04532177 12.81385874 27.08195691 25.62766358 27.10362434 38.44158459 C27.11402759 44.39264612 27.1281232 50.3436496 27.15087891 56.29467773 C27.17273115 62.04592262 27.18459459 67.79711193 27.18975449 73.54839516 C27.19342812 75.73424465 27.20060134 77.92009137 27.21146011 80.10591698 C27.35722883 110.68591094 27.35722883 110.68591094 21 122 C20.65195313 122.62519531 20.30390625 123.25039062 19.9453125 123.89453125 C14.35231364 132.74689841 3.46356255 137.80864211 -6.4375 140.25 C-21.8063181 142.90309302 -39.05339592 141.84935546 -52.59765625 133.71484375 C-60.82756098 127.84016378 -65.12346819 119.53631275 -67.54638672 109.80566406 C-68.11457033 106.29136584 -68.18163565 102.82764395 -68.203125 99.27734375 C-68.20882507 98.536017 -68.21452515 97.79469025 -68.22039795 97.03089905 C-68.22981783 95.46340344 -68.23636992 93.89588829 -68.24023438 92.32836914 C-68.24987054 89.96919546 -68.28089236 87.61092016 -68.3125 85.25195312 C-68.41252087 71.13783505 -66.71329388 58.69061182 -56.99609375 47.7421875 C-47.56614855 38.5990206 -36.19829162 36.71909403 -23.5078125 36.8515625 C-14.61888005 37.22770886 -7.40650942 39.59349058 -1 46 C-0.67 30.82 -0.34 15.64 0 0 Z M-38.30200195 67.44995117 C-41.98480125 73.41918546 -41.57304701 80.23642876 -41.46655273 87.03637695 C-41.43750443 89.0621911 -41.44598975 91.08539313 -41.45898438 93.11132812 C-41.49087473 103.78690642 -41.49087473 103.78690642 -36.375 112.8125 C-28.2199518 116.8900241 -18.81304513 116.91367185 -10.11328125 114.75 C-6.46801399 113.45630072 -4.62853109 111.88497315 -2 109 C0.58076676 102.51273014 0.33192394 95.96576934 0.3125 89.0625 C0.32861328 87.92103516 0.34472656 86.77957031 0.36132812 85.60351562 C0.3651315 79.01987464 -0.08482933 73.9416605 -3 68 C-8.38213761 62.75241583 -13.15501733 62.79306515 -20.25 62.75 C-21.08402344 62.729375 -21.91804688 62.70875 -22.77734375 62.6875 C-28.56477011 62.65115823 -34.15166469 62.82800236 -38.30200195 67.44995117 Z " fill="#FFFFFF" transform="translate(193,28)"/>
<path d="M0 0 C8.58 0 17.16 0 26 0 C26.09053317 14.0218469 26.16385019 28.04349821 26.20724869 42.06557178 C26.22808256 48.57727266 26.25632391 55.08876241 26.30175781 61.6003418 C26.34536466 67.88975271 26.36916868 74.1789611 26.37950897 80.46851158 C26.38687368 82.86257805 26.40125501 85.25663402 26.42292023 87.65061378 C26.45215068 91.01576928 26.4559477 94.38009838 26.45410156 97.74536133 C26.46848267 98.72504379 26.48286377 99.70472626 26.49768066 100.71409607 C26.43425577 111.46740394 22.84533773 120.4816987 15.75 128.5625 C2.36864356 140.42324776 -13.85096315 141.96806188 -31 141 C-42.56783716 139.57663735 -53.18203897 135.36751794 -60.5703125 126.0703125 C-66.20945207 117.90434536 -68.305849 109.41382148 -68.3359375 99.58203125 C-68.3425943 98.80292892 -68.3492511 98.0238266 -68.35610962 97.22111511 C-68.36617046 95.58159723 -68.37092869 93.94203895 -68.37060547 92.30249023 C-68.37495903 89.83571265 -68.41129216 87.37075676 -68.44921875 84.90429688 C-68.55239561 70.47079899 -66.18485771 58.04831523 -56.22265625 47.03515625 C-47.28372131 38.3887018 -35.61916436 36.68086655 -23.6484375 36.78125 C-14.79610619 37.31201076 -7.33206043 39.66793957 -1 46 C-0.67 30.82 -0.34 15.64 0 0 Z M-38.30200195 67.44995117 C-41.98480125 73.41918546 -41.57304701 80.23642876 -41.46655273 87.03637695 C-41.43750443 89.0621911 -41.44598975 91.08539313 -41.45898438 93.11132812 C-41.49087473 103.78690642 -41.49087473 103.78690642 -36.375 112.8125 C-27.58721793 117.20639103 -17.18302637 117.03759763 -8 114 C-3.31574955 111.45421171 -2.15672506 108.51167199 -0.61962891 103.66821289 C0.51027156 98.80269588 0.43107597 93.97206948 0.375 89 C0.38660156 87.97132812 0.39820313 86.94265625 0.41015625 85.8828125 C0.38168086 78.42225921 -0.00179263 70.99820737 -5.5 65.5 C-10.38565313 62.56860812 -14.72909738 62.78351079 -20.25 62.75 C-21.08402344 62.729375 -21.91804687 62.70875 -22.77734375 62.6875 C-28.56477011 62.65115823 -34.15166469 62.82800236 -38.30200195 67.44995117 Z " fill="#EF3E3B" transform="translate(882,28)"/>
<path d="M0 0 C7.94811179 6.17098116 12.14538339 13.93375374 14.21875 23.72265625 C14.44301884 27.67808006 14.40389497 31.63650299 14.40625 35.59765625 C14.41849609 36.67402344 14.43074219 37.75039062 14.44335938 38.859375 C14.44529297 39.90480469 14.44722656 40.95023438 14.44921875 42.02734375 C14.45332764 42.97593262 14.45743652 43.92452148 14.46166992 44.90185547 C14.21875 47.72265625 14.21875 47.72265625 12.21875 53.72265625 C-7.58125 54.05265625 -27.38125 54.38265625 -47.78125 54.72265625 C-47.02564334 65.79294978 -47.02564334 65.79294978 -43.40625 69.41015625 C-38.65083938 71.78786156 -34.23062313 71.93378738 -28.96875 71.97265625 C-28.28232422 71.99328125 -27.59589844 72.01390625 -26.88867188 72.03515625 C-21.91792647 72.07277779 -18.13175663 71.35543517 -13.78125 68.72265625 C-12.79125 66.41265625 -11.80125 64.10265625 -10.78125 61.72265625 C-2.53125 61.72265625 5.71875 61.72265625 14.21875 61.72265625 C14.21875 71.9187266 13.28012901 79.54705594 6.16796875 87.125 C-6.89585283 97.8326213 -23.771451 97.71413249 -39.78125 96.72265625 C-50.39978959 95.37158958 -59.75488483 91.7589232 -67.2109375 83.88671875 C-73.08105512 75.79705417 -74.93406013 66.67643668 -74.984375 56.93359375 C-74.99007507 56.07512848 -74.99577515 55.21666321 -75.00164795 54.33218384 C-75.01108483 52.5149254 -75.01762672 50.69764994 -75.02148438 48.88037109 C-75.03114257 46.12826772 -75.06215837 43.37692675 -75.09375 40.625 C-75.1788509 26.72476394 -73.9504343 14.65890011 -64.1171875 3.90234375 C-47.9891974 -10.75277054 -17.91062002 -11.83380251 0 0 Z M-45.78125 20.72265625 C-48.22870774 24.41501464 -48.09512296 26.91976698 -48.78125 31.72265625 C-36.24125 31.72265625 -23.70125 31.72265625 -10.78125 31.72265625 C-11.53535564 23.53592519 -11.53535564 23.53592519 -16.78125 18.72265625 C-20.57525354 16.17538201 -24.61354264 16.33810342 -29.03125 16.34765625 C-29.79252197 16.34926758 -30.55379395 16.35087891 -31.33813477 16.35253906 C-37.11769393 16.47905801 -41.02509394 17.22833751 -45.78125 20.72265625 Z " fill="#FFFFFF" transform="translate(520.78125,72.27734375)"/>
<path d="M0 0 C7.62796281 7.00138015 12.57622712 15.19474458 13.14526367 25.67553711 C13.1698447 28.76296754 13.18565007 31.84996453 13.1875 34.9375 C13.19974609 36.00935547 13.21199219 37.08121094 13.22460938 38.18554688 C13.22654297 39.22646484 13.22847656 40.26738281 13.23046875 41.33984375 C13.23457764 42.28206787 13.23868652 43.22429199 13.24291992 44.19506836 C13 47 13 47 11 53 C-8.8 53.33 -28.6 53.66 -49 54 C-48.24439334 65.07029353 -48.24439334 65.07029353 -44.625 68.6875 C-39.71319188 71.14340406 -35.04922976 71.21272007 -29.625 71.25 C-28.8825 71.270625 -28.14 71.29125 -27.375 71.3125 C-22.55092567 71.3465924 -19.03190197 70.92580497 -15 68 C-14.01 65.69 -13.02 63.38 -12 61 C-3.75 61 4.5 61 13 61 C13 72.03398703 11.75111919 79.17659062 4.10546875 87.24609375 C-8.20784615 97.50338204 -25.89771413 96.90992098 -41 96 C-52.48808893 94.62880383 -62.13942511 90.29772292 -69.53125 81.21484375 C-74.77174637 73.31228672 -76.14835167 64.96478925 -76.23828125 55.65625 C-76.246353 54.85070679 -76.25442474 54.04516357 -76.26274109 53.21520996 C-76.27653939 51.51068239 -76.28728047 49.80612768 -76.29516602 48.1015625 C-76.30662713 46.38142635 -76.32698477 44.66132409 -76.35668945 42.94140625 C-76.60111765 28.7618398 -75.84783698 15.2351766 -66 4 C-49.90969559 -11.17183038 -17.82907269 -13.57440762 0 0 Z M-47.3125 21.25 C-49.54033173 24.47213036 -49.54033173 24.47213036 -50 31 C-37.46 31 -24.92 31 -12 31 C-12.6394519 23.18684522 -12.6394519 23.18684522 -17 18 C-21.42945095 15.66655542 -25.55227049 15.66627833 -30.4375 15.6875 C-31.54448242 15.66333008 -31.54448242 15.66333008 -32.67382812 15.63867188 C-38.68923741 15.63332484 -42.88696926 16.9440782 -47.3125 21.25 Z " fill="#EF3E3B" transform="translate(786,73)"/>
<path d="M0 0 C9.28293863 8.17399413 11.70532609 18.09586824 13 30 C13.2416729 35.09170782 13.23559883 40.17373827 13.1953125 45.26953125 C13.19157026 46.68584491 13.18872903 48.1021612 13.18673706 49.51847839 C13.17919575 53.19926432 13.15963225 56.8798858 13.1373291 60.56060791 C13.11666265 64.33530454 13.10769144 68.11002842 13.09765625 71.88476562 C13.07637462 79.25659314 13.04127341 86.62825234 13 94 C4.09 94 -4.82 94 -14 94 C-14 86.08 -14 78.16 -14 70 C-18.95 70 -23.9 70 -29 70 C-29 68.02 -29 66.04 -29 64 C-24.05 64 -19.1 64 -14 64 C-14 62.68 -14 61.36 -14 60 C-18.95 60 -23.9 60 -29 60 C-29 57.69 -29 55.38 -29 53 C-24.05 53 -19.1 53 -14 53 C-14 51.68 -14 50.36 -14 49 C-18.95 49 -23.9 49 -29 49 C-29 47.02 -29 45.04 -29 43 C-26.05613377 41.52806688 -23.62609964 42.15063827 -20.375 42.4375 C-19.18648438 42.53933594 -17.99796875 42.64117187 -16.7734375 42.74609375 C-15.85820312 42.82988281 -14.94296875 42.91367188 -14 43 C-14.28218081 40.08213036 -14.57534127 37.166082 -14.875 34.25 C-14.95363281 33.425 -15.03226562 32.6 -15.11328125 31.75 C-15.19707031 30.95078125 -15.28085937 30.1515625 -15.3671875 29.328125 C-15.44050293 28.5949707 -15.51381836 27.86181641 -15.58935547 27.10644531 C-16.04594002 24.76434572 -16.77112572 23.04168606 -18 21 C-22.46615727 18.28595058 -27.44109506 18.70351695 -32.5 18.75 C-33.34175781 18.74226563 -34.18351562 18.73453125 -35.05078125 18.7265625 C-41.27447829 18.73810731 -41.27447829 18.73810731 -47 21 C-50.71669013 27.90242453 -50.68593559 35.28917736 -51 43 C-50.00097656 42.91621094 -49.00195312 42.83242187 -47.97265625 42.74609375 C-46.03712891 42.59333984 -46.03712891 42.59333984 -44.0625 42.4375 C-42.77472656 42.33308594 -41.48695313 42.22867188 -40.16015625 42.12109375 C-38.59587891 42.06115234 -38.59587891 42.06115234 -37 42 C-36 43 -36 43 -36 49 C-40.95 49 -45.9 49 -51 49 C-51 50.32 -51 51.64 -51 53 C-46.05 53 -41.1 53 -36 53 C-36 55.31 -36 57.62 -36 60 C-40.95 60 -45.9 60 -51 60 C-51 61.32 -51 62.64 -51 64 C-46.05 64 -41.1 64 -36 64 C-36 65.98 -36 67.96 -36 70 C-40.95 70 -45.9 70 -51 70 C-51 77.92 -51 85.84 -51 94 C-59.91 94 -68.82 94 -78 94 C-78.06816792 85.48879872 -78.12303983 76.97781484 -78.15543652 68.46641254 C-78.17099657 64.51290438 -78.19205465 60.55959499 -78.22631836 56.60620117 C-78.25926113 52.78064753 -78.27692534 48.95528332 -78.28463173 45.12959862 C-78.29011337 43.68057466 -78.30081465 42.23155936 -78.31719017 40.78261757 C-78.47272928 26.43045256 -77.23047267 13.90307044 -67.18359375 3.03515625 C-51.02292776 -12.40725792 -17.90480996 -12.33157752 0 0 Z " fill="#FFFFFF" transform="translate(417,73)"/>
<path d="M0 0 C6.82813931 6.58063746 9.85424724 14.01995155 10.10668945 23.39038086 C10.12654045 25.58700439 10.13460016 27.78375626 10.1328125 29.98046875 C10.13709763 31.15017715 10.14138275 32.31988556 10.14579773 33.52503967 C10.15152533 35.99186558 10.15205291 38.45870838 10.14770508 40.92553711 C10.14454481 44.6869808 10.1680263 48.44763775 10.19335938 52.20898438 C10.19563258 54.61197818 10.19633577 57.01497409 10.1953125 59.41796875 C10.20452225 60.53590317 10.21373199 61.65383759 10.22322083 62.8056488 C10.16951539 71.92719313 8.38795694 80.01967248 1.83203125 86.765625 C-10.9284408 97.10015179 -28.54779973 97.00892154 -44.16796875 95.765625 C-53.19452256 94.61364747 -61.61180565 92.38834813 -68.16796875 85.765625 C-69.09609375 84.858125 -70.02421875 83.950625 -70.98046875 83.015625 C-76.46497814 74.86721106 -77.30407979 65.67440837 -75.734375 56.12890625 C-73.80622169 48.30850805 -69.47046603 43.48101165 -63.35546875 38.453125 C-52.4940153 32.70294376 -41.23020568 32.62132291 -29.23046875 32.703125 C-27.97427734 32.70763672 -26.71808594 32.71214844 -25.42382812 32.71679688 C-22.33849212 32.72852819 -19.25325559 32.744944 -16.16796875 32.765625 C-16.44015719 30.81994693 -16.72675628 28.87628068 -17.01953125 26.93359375 C-17.17760254 25.85102295 -17.33567383 24.76845215 -17.49853516 23.65307617 C-17.97584353 20.55348631 -17.97584353 20.55348631 -20.54296875 18.078125 C-26.78315447 14.95803214 -34.46136332 14.56034745 -41.10546875 16.765625 C-45.14619067 18.97344794 -45.14619067 18.97344794 -47.16796875 26.765625 C-55.08796875 26.765625 -63.00796875 26.765625 -71.16796875 26.765625 C-71.16796875 15.63798579 -69.90071187 8.63560441 -62.2109375 0.51953125 C-46.88079993 -12.64152376 -15.9676605 -12.09023625 0 0 Z M-47.16796875 56.765625 C-49.6131799 60.43344172 -49.89034634 63.50015733 -49.16796875 67.765625 C-47.29781781 70.19682123 -45.8865853 71.40631673 -43.16796875 72.765625 C-40.07011996 73.02947585 -36.96331552 72.99713967 -33.85546875 73.015625 C-33.00017578 73.03625 -32.14488281 73.056875 -31.26367188 73.078125 C-26.38291925 73.10836979 -23.1365908 72.92824063 -19.16796875 69.765625 C-16.43366215 67.0313184 -16.2145621 64.99568945 -16.0703125 61.1875 C-16.08191406 60.30578125 -16.09351563 59.4240625 -16.10546875 58.515625 C-16.11449219 57.62359375 -16.12351562 56.7315625 -16.1328125 55.8125 C-16.14441406 55.13703125 -16.15601563 54.4615625 -16.16796875 53.765625 C-20.39700495 53.67836841 -24.62580887 53.6251461 -28.85546875 53.578125 C-30.05365234 53.55298828 -31.25183594 53.52785156 -32.48632812 53.50195312 C-34.22172852 53.48745117 -34.22172852 53.48745117 -35.9921875 53.47265625 C-37.5867981 53.44909058 -37.5867981 53.44909058 -39.21362305 53.42504883 C-42.61949205 53.81767648 -44.43366446 54.72719534 -47.16796875 56.765625 Z " fill="#EF3E3B" transform="translate(1049.16796875,73.234375)"/>
<path d="M0 0 C8.91 0 17.82 0 27 0 C27.01981934 3.24545654 27.03963867 6.49091309 27.06005859 9.8347168 C27.12693272 20.55164584 27.20457278 31.26847735 27.28752708 41.98529339 C27.33749613 48.48358203 27.38382631 54.98185437 27.421875 61.48022461 C27.45871984 67.75021961 27.50507796 74.02007839 27.55806351 80.28995705 C27.57661165 82.68334377 27.59171804 85.07675969 27.60334396 87.47019005 C27.62019892 90.81970577 27.64923287 94.16890925 27.68115234 97.51831055 C27.68331253 98.51021393 27.68547272 99.50211731 27.68769836 100.52407837 C27.57620615 107.82055076 27.57620615 107.82055076 31 114 C33.18639453 114.07258946 35.37500389 114.08373783 37.5625 114.0625 C39.686875 114.041875 41.81125 114.02125 44 114 C43.67 122.25 43.34 130.5 43 139 C30.00167596 141.88851645 20.55446991 141.24933381 9.25 134.3125 C0.19957924 125.01067866 -0.31500197 112.79607175 -0.22705078 100.4699707 C-0.22734283 99.37596451 -0.22763489 98.28195831 -0.22793579 97.15480042 C-0.22655471 93.57837688 -0.21105146 90.0021679 -0.1953125 86.42578125 C-0.19157802 83.93043634 -0.1887331 81.43508995 -0.18673706 78.93974304 C-0.17913486 72.40170172 -0.15951589 65.86375056 -0.1373291 59.32574463 C-0.11570143 52.64231111 -0.10771961 45.95884939 -0.09765625 39.27539062 C-0.0762666 26.18354795 -0.04111248 13.09179561 0 0 Z " fill="#FFFFFF" transform="translate(237,28)"/>
<path d="M0 0 C1.07056641 -0.00128906 2.14113281 -0.00257812 3.24414062 -0.00390625 C4.93506836 0.00189453 4.93506836 0.00189453 6.66015625 0.0078125 C8.3452832 0.00201172 8.3452832 0.00201172 10.06445312 -0.00390625 C11.67223633 -0.00197266 11.67223633 -0.00197266 13.3125 0 C14.79544556 0.00169189 14.79544556 0.00169189 16.30834961 0.00341797 C18.72265625 0.1328125 18.72265625 0.1328125 20.72265625 1.1328125 C20.72265625 33.8028125 20.72265625 66.4728125 20.72265625 100.1328125 C11.81265625 100.1328125 2.90265625 100.1328125 -6.27734375 100.1328125 C-6.29989272 87.24208683 -6.31825764 74.35137416 -6.32915592 61.46063328 C-6.33438526 55.47561984 -6.34148383 49.49062054 -6.3527832 43.50561523 C-6.36361028 37.73497821 -6.3696202 31.96435482 -6.37222099 26.19370842 C-6.37407557 23.98678307 -6.37769679 21.7798585 -6.38307381 19.57293892 C-6.39028185 16.49335209 -6.39133479 13.41382236 -6.39086914 10.33422852 C-6.39446442 9.41210068 -6.39805969 8.48997284 -6.40176392 7.53990173 C-6.38935368 0.00729795 -6.38935368 0.00729795 0 0 Z " fill="#FFFFFF" transform="translate(299.27734375,66.8671875)"/>
<path d="M0 0 C1.07185547 -0.00128906 2.14371094 -0.00257812 3.24804688 -0.00390625 C4.37146484 -0.00003906 5.49488281 0.00382812 6.65234375 0.0078125 C7.77962891 0.00394531 8.90691406 0.00007813 10.06835938 -0.00390625 C11.13892578 -0.00261719 12.20949219 -0.00132813 13.3125 0 C14.79375366 0.00169189 14.79375366 0.00169189 16.30493164 0.00341797 C18.58984375 0.1328125 18.58984375 0.1328125 19.58984375 1.1328125 C19.68516703 4.20736011 19.71535755 7.25940408 19.70336914 10.33422852 C19.70351517 11.29997803 19.70366119 12.26572754 19.70381165 13.26074219 C19.70311209 16.46942349 19.69531772 19.67804753 19.6875 22.88671875 C19.68563597 25.10489368 19.684212 27.32306902 19.68321228 29.54124451 C19.67938591 35.39221321 19.66955461 41.24315727 19.6585083 47.09411621 C19.64829674 53.05948554 19.64371521 59.02485883 19.63867188 64.99023438 C19.62793244 76.70443968 19.61033468 88.41862019 19.58984375 100.1328125 C10.67984375 100.1328125 1.76984375 100.1328125 -7.41015625 100.1328125 C-7.41015625 67.4628125 -7.41015625 34.7928125 -7.41015625 1.1328125 C-4.81461791 -0.16495667 -2.90310098 0.00331215 0 0 Z " fill="#EF3E3B" transform="translate(935.41015625,66.8671875)"/>
<path d="M0 0 C3.5177775 3.02692483 7.3267958 6.40912682 7.92578125 11.23046875 C8.12089091 17.19671668 7.27725645 20.49466898 3.6875 25.3125 C-0.85190556 29.3240677 -5.34925124 30.58063169 -11.3125 30.3125 C-16.7914974 28.41592398 -20.60799759 25.02420839 -23.6875 20.125 C-24.82779206 14.99368573 -24.76073127 9.81482365 -22.078125 5.1796875 C-16.37203698 -1.84997763 -8.28381157 -4.22005495 0 0 Z " fill="#FFFFFF" transform="translate(314.3125,24.6875)"/>
<path d="M0 0 C4.37524826 2.22978391 6.84223362 4.96571724 9.01171875 9.3046875 C10.27160053 13.57090788 10.19915212 16.62524154 9.01171875 20.9296875 C6.1978628 25.67806941 3.1888494 29.23233461 -2.1640625 31.0390625 C-7.21317292 31.9111023 -10.83967046 31.09163951 -15.26171875 28.5546875 C-18.33940994 26.32649478 -20.30539241 23.67046517 -21.98828125 20.3046875 C-22.74866814 13.48613624 -22.24257255 8.75890712 -17.98828125 3.3046875 C-12.82539113 -1.20280983 -6.47214481 -2.26334337 0 0 Z " fill="#EF3E3B" transform="translate(947.98828125,23.6953125)"/>
<path d="M0 0 C10.23 0 20.46 0 31 0 C31 1.98 31 3.96 31 6 C23.08 6.33 15.16 6.66 7 7 C7 11.29 7 15.58 7 20 C13.6 20.33 20.2 20.66 27 21 C27 22.65 27 24.3 27 26 C24.64341603 27.17829199 23.47426764 27.04414372 20.8671875 26.87890625 C20.06152344 26.83056641 19.25585938 26.78222656 18.42578125 26.73242188 C17.58402344 26.67634766 16.74226563 26.62027344 15.875 26.5625 C14.60076172 26.48418945 14.60076172 26.48418945 13.30078125 26.40429688 C11.20020876 26.27448622 9.10005809 26.1378826 7 26 C7 30.95 7 35.9 7 41 C14.92 41.33 22.84 41.66 31 42 C31 43.98 31 45.96 31 48 C20.77 48 10.54 48 0 48 C0 32.16 0 16.32 0 0 Z " fill="#FFFFFF" transform="translate(482,207)"/>
<path d="M0 0 C10.23 0 20.46 0 31 0 C31 1.98 31 3.96 31 6 C23.08 6.33 15.16 6.66 7 7 C7 11.29 7 15.58 7 20 C13.6 20.33 20.2 20.66 27 21 C27 22.65 27 24.3 27 26 C20.4 26.33 13.8 26.66 7 27 C7 31.62 7 36.24 7 41 C14.92 41.33 22.84 41.66 31 42 C31 43.98 31 45.96 31 48 C26.74585377 48.02465622 22.49174502 48.04283899 18.23754883 48.05493164 C16.78929927 48.05997101 15.34105483 48.06680253 13.89282227 48.07543945 C11.81525412 48.08752247 9.73775303 48.09323211 7.66015625 48.09765625 C6.40855713 48.10289307 5.15695801 48.10812988 3.86743164 48.11352539 C1 48 1 48 0 47 C-0.09304018 45.52645652 -0.11746265 44.04849409 -0.11352539 42.57202148 C-0.11344986 41.63112167 -0.11337433 40.69022186 -0.11329651 39.72080994 C-0.10813522 38.69790359 -0.10297394 37.67499725 -0.09765625 36.62109375 C-0.0962413 35.57929459 -0.09482635 34.53749542 -0.09336853 33.46412659 C-0.0877508 30.12188906 -0.0751953 26.77971743 -0.0625 23.4375 C-0.05748728 21.17773534 -0.05292398 18.91796963 -0.04882812 16.65820312 C-0.03862456 11.10542266 -0.01905264 5.55278548 0 0 Z " fill="#FFFFFF" transform="translate(205,207)"/>
<path d="M0 0 C1.98 0 3.96 0 6 0 C6.33 4.29 6.66 8.58 7 13 C8.32 12.34 9.64 11.68 11 11 C15.88155349 10.30723828 19.88243347 10.48260809 24.375 12.5625 C28.50987212 16.40202411 31.61275089 21.22432118 32.203125 26.98046875 C32.33980648 33.41588829 31.5133886 38.55327704 27.6640625 43.83203125 C24.03565567 47.61088422 21.02177857 48.41638609 15.8125 48.5625 C11.49657878 48.47939497 9.23679632 47.89689408 6 45 C5.67 45.99 5.34 46.98 5 48 C3.35 48 1.7 48 0 48 C0 32.16 0 16.32 0 0 Z M6 22 C3.85370729 26.78788375 4.45030611 32.5433112 6.25 37.3125 C8.50582094 40.88091165 8.50582094 40.88091165 12 43 C15.19387055 43.2474955 17.95163474 43.00304666 21 42 C24.75226703 38.06011962 25.81449842 34.37954592 26 29 C25.5161461 25.03239804 24.56037566 21.89660105 22.4375 18.5 C16.20396679 14.66397956 10.2279765 16.18653231 6 22 Z " fill="#FFFFFF" transform="translate(329,207)"/>
<path d="M0 0 C24.46153846 0 24.46153846 0 30.875 5.4375 C33.8540667 9.28425602 33.63313567 13.45937883 33.41796875 18.15234375 C32.84688683 22.04317292 31.74265231 24.18517263 29 27 C23.93430094 30.20420723 19.90378575 30.37699588 14.125 30.1875 C11.44375 30.125625 8.7625 30.06375 6 30 C6 35.94 6 41.88 6 48 C4.02 48 2.04 48 0 48 C0 32.16 0 16.32 0 0 Z M6 6 C6 11.94 6 17.88 6 24 C8.7225 24.103125 11.445 24.20625 14.25 24.3125 C15.10110352 24.35802002 15.95220703 24.40354004 16.82910156 24.45043945 C20.84789028 24.52420926 22.42592693 24.51871921 25.51171875 21.73046875 C26.88720871 19.20693204 27.56819857 17.82648993 27.5625 15 C27.58441406 14.360625 27.60632813 13.72125 27.62890625 13.0625 C26.58007831 9.62286551 24.83405509 8.15521729 22 6 C19.18877835 5.41584071 16.54261382 5.52294432 13.6875 5.6875 C9.8821875 5.8421875 9.8821875 5.8421875 6 6 Z " fill="#FFFFFF" transform="translate(726,207)"/>
<path d="M0 0 C4.92006067 2.32584686 7.31231435 5.32143608 10 10 C11 13 11 13 11 21 C2.09 21 -6.82 21 -16 21 C-13.74218208 27.59757251 -13.74218208 27.59757251 -10.8125 30 C-6.0194892 31.70418162 -1.78503701 30.59501234 3 29 C4.20882096 26.99983534 4.20882096 26.99983534 5 25 C6.65 25.66 8.3 26.32 10 27 C8.64717831 31.42741644 6.76701112 33.36309221 3 36 C-1.42169095 38.21084548 -7.18694644 37.41036997 -12 37 C-16.53713488 35.01002856 -18.97756988 32.42650542 -21.24609375 27.984375 C-23.59500797 21.80174068 -23.72681037 15.07054617 -21 9 C-15.45676414 0.74204159 -9.8126073 -1.13934482 0 0 Z M-13.75 8.3125 C-15.43720429 10.33968299 -15.43720429 10.33968299 -16 15 C-9.07 15 -2.14 15 5 15 C2.71183213 8.46423835 2.71183213 8.46423835 0 6 C-5.61078083 4.72963453 -9.1140849 4.83556368 -13.75 8.3125 Z " fill="#FFFFFF" transform="translate(571,218)"/>
<path d="M0 0 C1.65 0 3.3 0 5 0 C5.33 4.62 5.66 9.24 6 14 C7.65 13.01 9.3 12.02 11 11 C15.93841333 10.13127753 19.93555157 10.47745259 24.4375 12.6875 C28.53986268 16.38963218 30.13357701 19.61387587 31 25 C31.07790887 26.83848168 31.10793615 28.67942827 31.09765625 30.51953125 C31.09443359 31.54111328 31.09121094 32.56269531 31.08789062 33.61523438 C31.07951172 34.67033203 31.07113281 35.72542969 31.0625 36.8125 C31.05798828 37.88693359 31.05347656 38.96136719 31.04882812 40.06835938 C31.03707729 42.71229683 31.02064787 45.35611952 31 48 C29.02 48 27.04 48 25 48 C24.98018066 47.40050537 24.96036133 46.80101074 24.93994141 46.18334961 C24.84394997 43.43433529 24.73457495 40.68600507 24.625 37.9375 C24.5940625 36.99455078 24.563125 36.05160156 24.53125 35.08007812 C24.30851302 29.75295191 23.94864559 24.99091882 22 20 C18.21317793 17.47545195 15.44565082 17.37816575 11 18 C8.82523599 19.54338091 8.18167363 20.63665273 7 23 C6.84655791 24.88472859 6.75040429 26.77427874 6.68359375 28.6640625 C6.64169922 29.78554687 6.59980469 30.90703125 6.55664062 32.0625 C6.49766602 33.8259375 6.49766602 33.8259375 6.4375 35.625 C6.39431641 36.80835938 6.35113281 37.99171875 6.30664062 39.2109375 C6.20032574 42.14050328 6.09829358 45.07015588 6 48 C4.02 48 2.04 48 0 48 C0 32.16 0 16.32 0 0 Z " fill="#FFFFFF" transform="translate(276,207)"/>
<path d="M0 0 C4.98383173 2.35599318 7.02227569 4.89955309 9 10 C9.84098349 13.49367744 10.11864259 16.7121164 10.09765625 20.30078125 C10.09443359 21.27724609 10.09121094 22.25371094 10.08789062 23.25976562 C10.07532227 24.77086914 10.07532227 24.77086914 10.0625 26.3125 C10.05798828 27.33923828 10.05347656 28.36597656 10.04882812 29.42382812 C10.03708184 31.94927882 10.02065565 34.47460905 10 37 C8.02 37 6.04 37 4 37 C3.95101562 35.73285156 3.90203125 34.46570313 3.8515625 33.16015625 C3.77645809 31.46091904 3.70091368 29.76170124 3.625 28.0625 C3.5940625 27.23169922 3.563125 26.40089844 3.53125 25.54492188 C3.1524914 17.11004287 3.1524914 17.11004287 1 9 C-2.21436529 6.85708981 -4.17426609 6.69974209 -7.96484375 6.5390625 C-10.96702338 7.21901873 -12.07541471 8.63207406 -14 11 C-14.63828469 13.88873888 -14.63828469 13.88873888 -14.609375 17.078125 C-14.64160156 18.23828125 -14.67382812 19.3984375 -14.70703125 20.59375 C-14.72121094 21.8003125 -14.73539063 23.006875 -14.75 24.25 C-14.77964844 25.47203125 -14.80929687 26.6940625 -14.83984375 27.953125 C-14.91052402 30.96881644 -14.96323175 33.9837355 -15 37 C-16.99954746 37.04254356 -19.00041636 37.04080783 -21 37 C-22 36 -22 36 -22.11352539 32.67358398 C-22.11336629 31.19774444 -22.10767314 29.72189931 -22.09765625 28.24609375 C-22.09553383 27.08292381 -22.09553383 27.08292381 -22.09336853 25.89625549 C-22.08775345 23.40996506 -22.07519846 20.9237634 -22.0625 18.4375 C-22.05748694 16.75586067 -22.0529237 15.07421994 -22.04882812 13.39257812 C-22.03777913 9.26168434 -22.02050445 5.13085724 -22 1 C-20.02 1 -18.04 1 -16 1 C-15.67 1.66 -15.34 2.32 -15 3 C-14.38125 2.505 -13.7625 2.01 -13.125 1.5 C-8.70343138 -0.62235294 -4.8240061 -0.68803933 0 0 Z " fill="#FFFFFF" transform="translate(824,218)"/>
<path d="M0 0 C3.95666126 1.97833063 6.76474278 4.15039035 9 8 C9 8.99 9 9.98 9 11 C7.02 11.33 5.04 11.66 3 12 C2.773125 11.38125 2.54625 10.7625 2.3125 10.125 C1.13708376 7.87683053 1.13708376 7.87683053 -1.0625 6.6875 C-5.18229037 5.72329374 -8.86024994 6.33258931 -13 7 C-13.13440778 9.42919865 -13.13440778 9.42919865 -12 12 C-9.29769297 13.22832138 -6.81561116 14.12871967 -4 15 C-2.2214688 15.62432216 -0.45049296 16.27056131 1.3125 16.9375 C2.13363281 17.23527344 2.95476563 17.53304687 3.80078125 17.83984375 C6.39644155 19.20913524 7.50708488 20.48983042 9 23 C9.49677002 26.35319767 9.74097161 28.770536 7.9453125 31.75 C6.16609013 33.93981215 4.54279111 35.72860444 2 37 C-11.37801685 38.04622952 -11.37801685 38.04622952 -15.6875 35.25 C-19.55711423 31.48496994 -19.55711423 31.48496994 -21 29 C-21 28.01 -21 27.02 -21 26 C-18.69 26 -16.38 26 -14 26 C-13.67 26.99 -13.34 27.98 -13 29 C-9.54888081 31.52197171 -6.14096815 31.22587099 -2 31 C-1.01 30.67 -0.02 30.34 1 30 C1.33 28.35 1.66 26.7 2 25 C-3.54433594 22.48228223 -9.09652077 20.16568151 -14.8359375 18.125 C-17.42676033 16.77814626 -18.54188127 15.5164307 -20 13 C-20 8.55648995 -19.47301786 6.57260057 -16.625 3.125 C-11.6681643 -0.88767652 -6.12866257 -0.64004631 0 0 Z " fill="#FFFFFF" transform="translate(885,218)"/>
<path d="M0 0 C3.95666126 1.97833063 6.76474278 4.15039035 9 8 C9 8.99 9 9.98 9 11 C7.02 11.33 5.04 11.66 3 12 C2.63841797 11.05060547 2.63841797 11.05060547 2.26953125 10.08203125 C1.18472419 7.85341629 1.18472419 7.85341629 -0.98828125 7.13671875 C-7.00135015 5.96781298 -7.00135015 5.96781298 -13 7 C-13.13440778 9.42919865 -13.13440778 9.42919865 -12 12 C-9.29769297 13.22832138 -6.81561116 14.12871967 -4 15 C-2.2214688 15.62432216 -0.45049296 16.27056131 1.3125 16.9375 C2.13363281 17.23527344 2.95476562 17.53304687 3.80078125 17.83984375 C6.39644155 19.20913524 7.50708488 20.48983042 9 23 C9.49677002 26.35319767 9.74097161 28.770536 7.9453125 31.75 C6.16609013 33.93981215 4.54279111 35.72860444 2 37 C-11.37801685 38.04622952 -11.37801685 38.04622952 -15.6875 35.25 C-19.55711423 31.48496994 -19.55711423 31.48496994 -21 29 C-21 28.01 -21 27.02 -21 26 C-18.25 25.75 -18.25 25.75 -15 26 C-12.75 27.9375 -12.75 27.9375 -11 30 C-8.01002175 31.49498913 -5.29957225 31.11577446 -2 31 C-1.01 30.67 -0.02 30.34 1 30 C1.33 28.35 1.66 26.7 2 25 C0.70954304 24.41399539 -0.58246888 23.83141538 -1.875 23.25 C-2.6896875 22.88261719 -3.504375 22.51523438 -4.34375 22.13671875 C-6.99047386 21.00407663 -9.66720729 20.03810179 -12.375 19.0625 C-15.48240134 17.820506 -16.88159285 17.12855634 -19.1875 14.625 C-20.24570711 11.20617703 -20.13424463 9.40273389 -19 6 C-13.54194578 -0.46348526 -8.08538614 -0.84439655 0 0 Z " fill="#FFFFFF" transform="translate(426,218)"/>
<path d="M0 0 C2.79828844 2.02875912 4.08639065 3.6711459 5.5 6.8125 C5.5 7.8025 5.5 8.7925 5.5 9.8125 C3.52 10.1425 1.54 10.4725 -0.5 10.8125 C-0.726875 10.19375 -0.95375 9.575 -1.1875 8.9375 C-2.9628632 6.06310243 -4.23488994 5.61063802 -7.5 4.8125 C-11.22471396 5.11764002 -11.22471396 5.11764002 -14.5 5.8125 C-14.83 7.4625 -15.16 9.1125 -15.5 10.8125 C-14.31921875 11.19921875 -13.1384375 11.5859375 -11.921875 11.984375 C-10.36437414 12.50979698 -8.80709387 13.03587313 -7.25 13.5625 C-6.47269531 13.81515625 -5.69539062 14.0678125 -4.89453125 14.328125 C-0.60240965 15.795517 2.75911581 16.99252754 5.5 20.8125 C6.29898225 23.89271435 6.15879267 26.70676313 5.5 29.8125 C3.31840855 32.56819447 1.62822506 34.24838747 -1.5 35.8125 C-14.88472635 36.85925424 -14.88472635 36.85925424 -19.25 34 C-21.5 31.8125 -21.5 31.8125 -23.5 28.8125 C-23.5 27.4925 -23.5 26.1725 -23.5 24.8125 C-20.6875 24.5625 -20.6875 24.5625 -17.5 24.8125 C-15.8125 26.75 -15.8125 26.75 -14.5 28.8125 C-10.97005387 29.98914871 -8.20544587 30.01100603 -4.5 29.8125 C-3.51 29.1525 -2.52 28.4925 -1.5 27.8125 C-1.24969023 25.22869823 -1.24969023 25.22869823 -1.5 22.8125 C-2.68078125 22.42578125 -3.8615625 22.0390625 -5.078125 21.640625 C-6.63562586 21.11520302 -8.19290613 20.58912687 -9.75 20.0625 C-10.52730469 19.80984375 -11.30460938 19.5571875 -12.10546875 19.296875 C-17.11927337 17.58275376 -20.88379822 15.93715678 -23.4375 11 C-23.54219338 7.33573161 -22.27846845 4.96784726 -20.5 1.8125 C-14.68504554 -2.6940897 -6.69997029 -2.27320421 0 0 Z " fill="#FFFFFF" transform="translate(672.5,219.1875)"/>
<path d="M0 0 C4.45228436 2.22614218 6.86733733 4.51018386 9 9 C10.02663133 12.2594552 10.11578178 15.23302539 10.09765625 18.640625 C10.09443359 19.71054688 10.09121094 20.78046875 10.08789062 21.8828125 C10.07951172 22.99398437 10.07113281 24.10515625 10.0625 25.25 C10.05798828 26.37664062 10.05347656 27.50328125 10.04882812 28.6640625 C10.03705397 31.44276217 10.0206084 34.22135409 10 37 C8.02 37 6.04 37 4 37 C3.98541748 36.3702124 3.97083496 35.7404248 3.95581055 35.09155273 C3.88081006 32.20628679 3.78432361 29.32211277 3.6875 26.4375 C3.66494141 25.44685547 3.64238281 24.45621094 3.61914062 23.43554688 C3.40565605 17.59383254 2.85802837 13.14445107 0 8 C-3.14341993 6.42829004 -6.55771451 6.76824217 -10 7 C-10.99 7.33 -11.98 7.66 -13 8 C-14.24562227 11.16438154 -14.19611941 14.49134335 -14.31640625 17.859375 C-14.35830078 18.97441406 -14.40019531 20.08945313 -14.44335938 21.23828125 C-14.50233398 22.97658203 -14.50233398 22.97658203 -14.5625 24.75 C-14.62727539 26.51150391 -14.62727539 26.51150391 -14.69335938 28.30859375 C-14.79934794 31.20561451 -14.90141638 34.10271935 -15 37 C-16.98 37 -18.96 37 -21 37 C-21 25.12 -21 13.24 -21 1 C-19.35 1 -17.7 1 -16 1 C-15.67 1.66 -15.34 2.32 -15 3 C-14.195625 2.505 -13.39125 2.01 -12.5625 1.5 C-8.17428334 -0.34767017 -4.69544336 -0.75732957 0 0 Z " fill="#FFFFFF" transform="translate(608,218)"/>
<path d="M0 0 C0 3.37721826 -0.34032809 3.77667251 -2.40625 6.25 C-3.15068359 7.16265625 -3.15068359 7.16265625 -3.91015625 8.09375 C-4.97005208 9.36458333 -6.02994792 10.63541667 -7.08984375 11.90625 C-7.83427734 12.81890625 -7.83427734 12.81890625 -8.59375 13.75 C-9.05458984 14.30171875 -9.51542969 14.8534375 -9.99023438 15.421875 C-11.26948247 17.10890952 -11.26948247 17.10890952 -11 20 C-9.8977469 21.75947786 -9.8977469 21.75947786 -8.375 23.50390625 C-7.83359375 24.16197266 -7.2921875 24.82003906 -6.734375 25.49804688 C-6.16203125 26.17931641 -5.5896875 26.86058594 -5 27.5625 C-3.87068286 28.91437401 -2.74545967 30.26968196 -1.625 31.62890625 C-1.12226563 32.22775635 -0.61953125 32.82660645 -0.1015625 33.44360352 C1 35 1 35 1 37 C-2.16015625 37.40625 -2.16015625 37.40625 -6 37 C-8.28418704 35.1626391 -9.80657499 32.91748823 -11.4375 30.5 C-11.88287109 29.87996094 -12.32824219 29.25992188 -12.78710938 28.62109375 C-13.87867023 27.09525599 -14.94220918 25.54944007 -16 24 C-16.96099609 25.40765625 -16.96099609 25.40765625 -17.94140625 26.84375 C-18.81389878 28.06336322 -19.68766421 29.28206652 -20.5625 30.5 C-20.98080078 31.12003906 -21.39910156 31.74007812 -21.83007812 32.37890625 C-23.12877474 34.15607003 -24.28301931 35.61889017 -26 37 C-29.83984375 37.40625 -29.83984375 37.40625 -33 37 C-31.00534123 32.33433265 -27.62469532 28.59449355 -24.45703125 24.68945312 C-21.63339666 21.27465685 -21.63339666 21.27465685 -21 17 C-22.00513696 15.3397107 -22.00513696 15.3397107 -23.40625 13.71484375 C-23.90253906 13.10189453 -24.39882812 12.48894531 -24.91015625 11.85742188 C-25.43480469 11.22384766 -25.95945313 10.59027344 -26.5 9.9375 C-32 3.25506757 -32 3.25506757 -32 1 C-28.80859375 0.625 -28.80859375 0.625 -25 1 C-22.93978155 3.03897909 -21.59885619 4.62733167 -20.0625 7 C-19.66482422 7.57234375 -19.26714844 8.1446875 -18.85742188 8.734375 C-17.88387842 10.1419077 -16.93897788 11.56917657 -16 13 C-15.43152344 12.14535156 -14.86304688 11.29070312 -14.27734375 10.41015625 C-13.49849959 9.29350017 -12.71848944 8.17765672 -11.9375 7.0625 C-11.56689453 6.49853516 -11.19628906 5.93457031 -10.81445312 5.35351562 C-8.43824457 2.0188364 -7.24073192 1.05555352 -3.19140625 0.12109375 C-1.61166016 0.06115234 -1.61166016 0.06115234 0 0 Z " fill="#FFFFFF" transform="translate(271,218)"/>
<path d="M0 0 C1.98 0 3.96 0 6 0 C6 3.3 6 6.6 6 10 C9.63 10 13.26 10 17 10 C17 11.65 17 13.3 17 15 C13.37 15 9.74 15 6 15 C6.14011038 18.81279106 6.28680438 22.62512562 6.4375 26.4375 C6.49647461 28.07041992 6.49647461 28.07041992 6.55664062 29.73632812 C6.61948242 31.28803711 6.61948242 31.28803711 6.68359375 32.87109375 C6.72025146 33.82943115 6.75690918 34.78776855 6.79467773 35.77514648 C6.75834424 37.97138925 6.75834424 37.97138925 8 39 C9.51469448 39.23192865 11.03754562 39.41215238 12.5625 39.5625 C13.38878906 39.64628906 14.21507812 39.73007813 15.06640625 39.81640625 C16.02353516 39.90728516 16.02353516 39.90728516 17 40 C17.042721 41.66611905 17.04063832 43.33382885 17 45 C15.43966377 46.56033623 13.91052864 46.20707559 11.75 46.25 C7.69085534 46.19837336 5.18359011 45.70122797 2 43 C-0.07024861 39.74300197 -0.23593409 37.17780482 -0.1953125 33.359375 C-0.18886719 32.28945312 -0.18242188 31.21953125 -0.17578125 30.1171875 C-0.15902344 29.00601563 -0.14226563 27.89484375 -0.125 26.75 C-0.11597656 25.62335938 -0.10695313 24.49671875 -0.09765625 23.3359375 C-0.07410658 20.55707635 -0.0412168 17.7786461 0 15 C-2.31 15 -4.62 15 -7 15 C-7 13.35 -7 11.7 -7 10 C-4.69 10 -2.38 10 0 10 C0 6.7 0 3.4 0 0 Z " fill="#FFFFFF" transform="translate(844,209)"/>
<path d="M0 0 C1.98 0 3.96 0 6 0 C6 3.3 6 6.6 6 10 C9.63 10 13.26 10 17 10 C17 11.65 17 13.3 17 15 C13.37 15 9.74 15 6 15 C6.33 22.59 6.66 30.18 7 38 C11.2099725 39.683989 12.78952566 40.24059853 17 40 C17.042721 41.66611905 17.04063832 43.33382885 17 45 C15.43966377 46.56033623 13.91052864 46.20707559 11.75 46.25 C7.68780609 46.20479275 5.2241093 45.63790761 2 43 C-0.29755922 39.55366118 -0.23643976 38.28931609 -0.1953125 34.23828125 C-0.18564453 32.56088867 -0.18564453 32.56088867 -0.17578125 30.84960938 C-0.15902344 29.68236328 -0.14226562 28.51511719 -0.125 27.3125 C-0.11597656 26.13365234 -0.10695313 24.95480469 -0.09765625 23.74023438 C-0.07406423 20.82661974 -0.0411454 17.91341108 0 15 C-2.31 15 -4.62 15 -7 15 C-7 13.35 -7 11.7 -7 10 C-4.69 10 -2.38 10 0 10 C0 6.7 0 3.4 0 0 Z " fill="#FFFFFF" transform="translate(385,209)"/>
<path d="M0 0 C1.98 0 3.96 0 6 0 C6 3.3 6 6.6 6 10 C9.63 10 13.26 10 17 10 C17 11.65 17 13.3 17 15 C13.37 15 9.74 15 6 15 C6.14035305 18.62528953 6.28702517 22.25012883 6.4375 25.875 C6.47681641 26.90753906 6.51613281 27.94007813 6.55664062 29.00390625 C6.61948242 30.48310547 6.61948242 30.48310547 6.68359375 31.9921875 C6.72025146 32.90339355 6.75690918 33.81459961 6.79467773 34.75341797 C6.86577065 37.03483481 6.86577065 37.03483481 8 39 C10.12576782 39.46651207 10.12576782 39.46651207 12.5625 39.625 C13.38878906 39.69976562 14.21507812 39.77453125 15.06640625 39.8515625 C15.70449219 39.90054688 16.34257813 39.94953125 17 40 C17 41.98 17 43.96 17 46 C8.16956953 46.46295461 8.16956953 46.46295461 4 44.8125 C1.00966475 42.10250868 0.11129569 39.31316944 -0.22705078 35.32104492 C-0.21657715 34.38365479 -0.20610352 33.44626465 -0.1953125 32.48046875 C-0.18886719 31.45888672 -0.18242188 30.43730469 -0.17578125 29.38476562 C-0.15902344 28.32966797 -0.14226563 27.27457031 -0.125 26.1875 C-0.11597656 25.11306641 -0.10695313 24.03863281 -0.09765625 22.93164062 C-0.07415306 20.28753146 -0.04129575 17.64388128 0 15 C-2.31 15 -4.62 15 -7 15 C-7 13.35 -7 11.7 -7 10 C-4.69 10 -2.38 10 0 10 C0 6.7 0 3.4 0 0 Z " fill="#FFFFFF" transform="translate(628,209)"/>
<path d="M0 0 C1.98 0 3.96 0 6 0 C8.97 7.92 11.94 15.84 15 24 C16.71245662 21.43131507 17.66291289 19.47695393 18.69140625 16.62109375 C19.14870117 15.36329102 19.14870117 15.36329102 19.61523438 14.08007812 C19.92783203 13.20802734 20.24042969 12.33597656 20.5625 11.4375 C21.18783604 9.70668192 21.81409413 7.97619661 22.44140625 6.24609375 C22.85434937 5.09645142 22.85434937 5.09645142 23.27563477 3.92358398 C24 2 24 2 25 0 C26.98 0 28.96 0 31 0 C28.77073279 7.80464025 26.13679302 15.43193316 23.375 23.0625 C22.96765625 24.20138672 22.5603125 25.34027344 22.140625 26.51367188 C21.75132812 27.59326172 21.36203125 28.67285156 20.9609375 29.78515625 C20.60821777 30.76363525 20.25549805 31.74211426 19.89208984 32.75024414 C19 35 19 35 18 36 C16.33382885 36.04063832 14.66611905 36.042721 13 36 C9.65040007 28.83763132 6.90838111 21.50510119 4.25 14.0625 C3.83878906 12.92748047 3.42757812 11.79246094 3.00390625 10.62304688 C0 2.25502232 0 2.25502232 0 0 Z " fill="#FFFFFF" transform="translate(516,219)"/>
<path d="M0 0 C3.29156962 2.69310241 5.84109876 5.43219752 7.75 9.25 C8.2572965 14.80531248 8.51260422 19.66830236 6.0625 24.75 C2.05458559 29.08288045 -1.38245598 31.98445129 -7.25 33.25 C-12.95669897 33.35292643 -16.77686532 31.90983747 -21.25 28.25 C-24.61914891 24.60008868 -27.19980158 21.25632785 -27.28515625 16.14453125 C-26.83378157 9.57207558 -24.70284087 5.57374398 -19.875 1 C-13.158146 -3.47790266 -7.03103202 -3.78594032 0 0 Z M-20.25 5.25 C-23.33230587 9.62488575 -24.15287269 13.99507803 -23.25 19.25 C-21.86471182 23.17889642 -19.94476107 25.76050925 -16.5 28.1875 C-11.04045546 29.9723511 -6.56372402 30.20974165 -1.4375 27.625 C2.12658433 24.96940776 3.37615784 23.45234072 4.75 19.25 C5.46055883 12.85497056 4.60381513 9.42222557 0.75 4.25 C-6.51640681 -0.86951389 -13.52857629 0.24188037 -20.25 5.25 Z " fill="#FFFFFF" transform="translate(1080.25,28.75)"/>
<path d="M0 0 C0 1.65 0 3.3 0 5 C-2.97851562 5.5859375 -2.97851562 5.5859375 -5.95703125 6.171875 C-8.67873864 7.27512924 -9.47579373 8.50123593 -11 11 C-11.48444032 13.6838723 -11.48444032 13.6838723 -11.4765625 16.60546875 C-11.5075 17.67087891 -11.5384375 18.73628906 -11.5703125 19.83398438 C-11.58835937 20.94064453 -11.60640625 22.04730469 -11.625 23.1875 C-11.67576465 25.38941685 -11.73024312 27.59125234 -11.7890625 29.79296875 C-11.80662598 30.7677417 -11.82418945 31.74251465 -11.84228516 32.74682617 C-12 35 -12 35 -13 36 C-14.98 36 -16.96 36 -19 36 C-19 24.12 -19 12.24 -19 0 C-17.02 0 -15.04 0 -13 0 C-12.67 0.66 -12.34 1.32 -12 2 C-10.948125 1.484375 -9.89625 0.96875 -8.8125 0.4375 C-5.51476233 -0.99688183 -3.4935632 -1.16452107 0 0 Z " fill="#FFFFFF" transform="translate(783,219)"/>
<path d="M0 0 C1.98 0 3.96 0 6 0 C6 11.88 6 23.76 6 36 C4.02 36 2.04 36 0 36 C0 24.12 0 12.24 0 0 Z " fill="#FFFFFF" transform="translate(788,219)"/>
<path d="M0 0 C1.98 0 3.96 0 6 0 C6 11.88 6 23.76 6 36 C4.02 36 2.04 36 0 36 C0 24.12 0 12.24 0 0 Z " fill="#FFFFFF" transform="translate(367,219)"/>
<path d="M0 0 C1.98 0 3.96 0 6 0 C6 11.88 6 23.76 6 36 C4.02 36 2.04 36 0 36 C0 24.12 0 12.24 0 0 Z " fill="#FFFFFF" transform="translate(314,219)"/>
<path d="M0 0 C1.588125 -0.061875 3.17625 -0.12375 4.8125 -0.1875 C6.15248047 -0.23970703 6.15248047 -0.23970703 7.51953125 -0.29296875 C10 0 10 0 11.83984375 1.3203125 C13 3 13 3 12.75 6.0625 C12 9 12 9 11 11 C11.99 12.485 11.99 12.485 13 14 C13 14.99 13 15.98 13 17 C11.125 16.8125 11.125 16.8125 9 16 C7.75 13.4375 7.75 13.4375 7 11 C6.01 11.33 5.02 11.66 4 12 C4 13.65 4 15.3 4 17 C2.68 17 1.36 17 0 17 C0 11.39 0 5.78 0 0 Z M3 3 C3.33 4.65 3.66 6.3 4 8 C5.65 7.67 7.3 7.34 9 7 C8.67 5.68 8.34 4.36 8 3 C6.35 3 4.7 3 3 3 Z " fill="#FFFFFF" transform="translate(1065,36)"/>
<path d="M0 0 C2.31 0 4.62 0 7 0 C7 2.31 7 4.62 7 7 C4.69 7 2.38 7 0 7 C0 4.69 0 2.38 0 0 Z " fill="#FFFFFF" transform="translate(454,248)"/>
<path d="M0 0 C1.98 0 3.96 0 6 0 C6 2.31 6 4.62 6 7 C4.02 7 2.04 7 0 7 C0 4.69 0 2.38 0 0 Z " fill="#FFFFFF" transform="translate(698,248)"/>
<path d="M0 0 C1.98 0 3.96 0 6 0 C6 2.31 6 4.62 6 7 C4.02 7 2.04 7 0 7 C0 4.69 0 2.38 0 0 Z " fill="#FFFFFF" transform="translate(788,207)"/>
<path d="M0 0 C1.98 0 3.96 0 6 0 C6 2.31 6 4.62 6 7 C4.02 7 2.04 7 0 7 C0 4.69 0 2.38 0 0 Z " fill="#FFFFFF" transform="translate(367,207)"/>
<path d="M0 0 C1.98 0 3.96 0 6 0 C6 2.31 6 4.62 6 7 C4.02 7 2.04 7 0 7 C0 4.69 0 2.38 0 0 Z " fill="#FFFFFF" transform="translate(314,207)"/>
</svg>
