<svg width="28" height="28" viewBox="0 0 28 28" fill="none" xmlns="http://www.w3.org/2000/svg">
<path d="M0.0605469 28L2.0293 20.8086C0.815234 18.7086 0.180859 16.3187 0.180859 13.8742C0.180859 6.22344 6.40977 0 14.0605 0C17.7738 0 21.2574 1.44922 23.877 4.06875C26.4965 6.69375 27.9402 10.1773 27.9402 13.8852C27.9348 21.5359 21.7113 27.7594 14.0605 27.7594H14.0551C11.7309 27.7594 9.45039 27.1742 7.42148 26.0695L0.0605469 28ZM7.76055 23.5594L8.18164 23.8109C9.95352 24.8609 11.9824 25.4187 14.0551 25.4187H14.0605C20.4207 25.4187 25.5941 20.2453 25.5941 13.8852C25.5941 10.8062 24.3965 7.90781 22.2199 5.72578C20.0434 3.54375 17.1449 2.34609 14.066 2.34609C7.70039 2.34609 2.52695 7.51953 2.52695 13.8797C2.52695 16.0563 3.13398 18.1781 4.28789 20.0156L4.56133 20.4531L3.39648 24.7078L7.76055 23.5594Z" fill="white"/>
<path d="M0.546875 27.5133L2.45 20.5734C1.27422 18.5445 0.65625 16.2367 0.65625 13.8797C0.661719 6.4914 6.67187 0.48671 14.0547 0.48671C17.6367 0.48671 21.0055 1.88124 23.532 4.41327C26.0641 6.9453 27.4586 10.3086 27.4531 13.8906C27.4477 21.2734 21.4375 27.2836 14.0547 27.2836H14.0492C11.807 27.2836 9.60312 26.7203 7.64531 25.6539L0.546875 27.5133Z" fill="url(#paint0_linear_129_117)"/>
<path d="M0.0605469 28L2.0293 20.8086C0.815234 18.7086 0.180859 16.3187 0.180859 13.8742C0.180859 6.22344 6.40977 0 14.0605 0C17.7738 0 21.2574 1.44922 23.877 4.06875C26.4965 6.69375 27.9402 10.1773 27.9402 13.8852C27.9348 21.5359 21.7113 27.7594 14.0605 27.7594H14.0551C11.7309 27.7594 9.45039 27.1742 7.42148 26.0695L0.0605469 28ZM7.76055 23.5594L8.18164 23.8109C9.95352 24.8609 11.9824 25.4187 14.0551 25.4187H14.0605C20.4207 25.4187 25.5941 20.2453 25.5941 13.8852C25.5941 10.8062 24.3965 7.90781 22.2199 5.72578C20.0434 3.54375 17.1449 2.34609 14.066 2.34609C7.70039 2.34609 2.52695 7.51953 2.52695 13.8797C2.52695 16.0563 3.13398 18.1781 4.28789 20.0156L4.56133 20.4531L3.39648 24.7078L7.76055 23.5594Z" fill="url(#paint1_linear_129_117)"/>
<path fill-rule="evenodd" clip-rule="evenodd" d="M10.5875 8.07188C10.325 7.4922 10.0516 7.48126 9.80547 7.47032C9.60312 7.45938 9.37344 7.46485 9.13828 7.46485C8.90859 7.46485 8.53125 7.55235 8.21406 7.89688C7.89687 8.24141 7 9.0836 7 10.7899C7 12.4961 8.24141 14.1477 8.41641 14.3774C8.59141 14.607 10.8172 18.2219 14.3391 19.6109C17.2703 20.7649 17.8664 20.5352 18.5008 20.4805C19.1352 20.4258 20.5516 19.6438 20.8414 18.8344C21.1312 18.025 21.1312 17.3305 21.0437 17.1883C20.9562 17.0461 20.7266 16.9586 20.3766 16.7836C20.032 16.6086 18.3258 15.7719 18.0086 15.657C17.6914 15.5422 17.4617 15.482 17.2266 15.832C16.9969 16.1766 16.3297 16.9586 16.1273 17.1883C15.925 17.418 15.7227 17.4508 15.3781 17.2758C15.0336 17.1008 13.9125 16.7344 12.5891 15.5531C11.5555 14.6344 10.8609 13.4969 10.6586 13.1524C10.4562 12.8078 10.6367 12.6164 10.8117 12.4469C10.9648 12.2938 11.1562 12.0422 11.3312 11.8399C11.5062 11.6375 11.5609 11.4953 11.6758 11.2602C11.7906 11.0305 11.7359 10.8281 11.6484 10.6531C11.5719 10.4727 10.8992 8.76095 10.5875 8.07188Z" fill="white"/>
<defs>
<linearGradient id="paint0_linear_129_117" x1="13.9999" y1="27.5155" x2="13.9999" y2="0.48485" gradientUnits="userSpaceOnUse">
<stop stop-color="#20B038"/>
<stop offset="1" stop-color="#60D66A"/>
</linearGradient>
<linearGradient id="paint1_linear_129_117" x1="14.0004" y1="28" x2="14.0004" y2="0" gradientUnits="userSpaceOnUse">
<stop stop-color="#F9F9F9"/>
<stop offset="1" stop-color="white"/>
</linearGradient>
</defs>
</svg>
